<svg width="53" height="40" viewBox="0 0 53 40" fill="none" xmlns="http://www.w3.org/2000/svg">
<path d="M20.0889 0.200195C31.0739 0.200251 39.9775 9.06563 39.9775 20C39.9775 30.9344 31.0739 39.7997 20.0889 39.7998C9.10377 39.7998 0.200195 30.9344 0.200195 20C0.200195 9.0656 9.10377 0.200195 20.0889 0.200195Z" fill="#F4F7FA" stroke="black" stroke-width="0.4"/>
<path d="M20.0884 3.60437C29.185 3.60437 36.5581 10.9456 36.5581 19.9999C36.5581 29.0542 29.185 36.3954 20.0884 36.3954C10.992 36.3951 3.61963 29.054 3.61963 19.9999C3.61965 10.9458 10.992 3.60462 20.0884 3.60437Z" stroke="black" stroke-opacity="0.3" stroke-width="0.4"/>
<path d="M32.9111 0.200195C43.8962 0.200251 52.7998 9.06563 52.7998 20C52.7998 30.9344 43.8962 39.7997 32.9111 39.7998C21.926 39.7998 13.0225 30.9344 13.0225 20C13.0225 9.0656 21.926 0.200195 32.9111 0.200195Z" fill="#F4F7FA" stroke="black" stroke-width="0.4"/>
<path d="M33.3385 3.60437C42.4351 3.60437 49.8082 10.9456 49.8082 19.9999C49.8082 29.0542 42.4351 36.3954 33.3385 36.3954C24.2421 36.3951 16.8698 29.054 16.8698 19.9999C16.8698 10.9458 24.2421 3.60462 33.3385 3.60437Z" stroke="black" stroke-width="0.4"/>
<path d="M32.6485 29.471V27.2533C30.7016 27.0045 28.9742 26.3092 27.4665 25.1674L29.1792 22.6642C30.4381 23.6157 31.6311 24.2086 32.7582 24.4428V20.9516C31.1187 20.5124 29.9184 19.9415 29.1572 19.2389C28.4107 18.5216 28.0374 17.5262 28.0374 16.2527C28.0374 15.0523 28.4546 14.0716 29.289 13.3104C30.1233 12.5492 31.2432 12.0954 32.6485 11.949V10.6755H34.932V11.9929C36.4105 12.1979 37.7719 12.7395 39.0161 13.6178L37.545 16.1868C36.6081 15.5573 35.7005 15.1255 34.8222 14.8913V18.2069C36.5056 18.6607 37.7206 19.2608 38.4672 20.0074C39.2137 20.7393 39.587 21.7274 39.587 22.9716C39.587 24.172 39.1625 25.1527 38.3135 25.9139C37.4791 26.6751 36.3519 27.1362 34.932 27.2973V29.471H32.6485ZM32.7582 17.6579V14.6937C31.7482 14.8254 31.2432 15.2939 31.2432 16.099C31.2432 16.4503 31.3456 16.7504 31.5506 16.9992C31.7702 17.2334 32.1727 17.453 32.7582 17.6579ZM34.8222 24.5526C35.8616 24.3916 36.3812 23.9085 36.3812 23.1034C36.3812 22.7228 36.2641 22.4154 36.0299 22.1812C35.8103 21.9323 35.4078 21.6981 34.8222 21.4785V24.5526Z" fill="url(#paint0_linear_0_495)"/>
<defs>
<linearGradient id="paint0_linear_0_495" x1="33.3391" y1="15.3192" x2="33.3391" y2="24.6809" gradientUnits="userSpaceOnUse">
<stop stop-color="#4614E8"/>
<stop offset="1" stop-color="#BCA7FF"/>
</linearGradient>
</defs>
</svg>
