<svg width="44" height="42" viewBox="0 0 44 42" fill="none" xmlns="http://www.w3.org/2000/svg">
<mask id="path-1-inside-1_20_217" fill="white">
<path d="M20 2.00037C31.0457 2.00037 40 10.9547 40 22.0004C40 33.0461 31.0457 42.0004 20 42.0004C8.95431 42.0004 0 33.0461 0 22.0004C0 10.9547 8.95431 2.00037 20 2.00037Z"/>
</mask>
<path d="M20 2.00037C31.0457 2.00037 40 10.9547 40 22.0004C40 33.0461 31.0457 42.0004 20 42.0004C8.95431 42.0004 0 33.0461 0 22.0004C0 10.9547 8.95431 2.00037 20 2.00037Z" fill="#F4F7FA"/>
<path d="M40 22.0004L40.4 22.0004L40 22.0004ZM0 22.0004H-0.4H0ZM20 2.00037V2.40037C30.8248 2.40037 39.6 11.1756 39.6 22.0004L40 22.0004L40.4 22.0004C40.4 10.7338 31.2666 1.60037 20 1.60037V2.00037ZM40 22.0004H39.6C39.6 32.8251 30.8248 41.6004 20 41.6004V42.0004V42.4004C31.2666 42.4004 40.4 33.267 40.4 22.0004H40ZM20 42.0004V41.6004C9.17522 41.6004 0.4 32.8251 0.4 22.0004H0H-0.4C-0.4 33.267 8.73339 42.4004 20 42.4004V42.0004ZM0 22.0004L0.4 22.0004C0.4 11.1756 9.17522 2.40037 20 2.40037V2.00037V1.60037C8.73339 1.60037 -0.4 10.7338 -0.4 22.0004L0 22.0004Z" fill="black" mask="url(#path-1-inside-1_20_217)"/>
<g clip-path="url(#clip0_20_217)">
<path d="M20.1648 14.4454C20.6739 14.4456 21.0847 14.8571 21.0847 15.3663V21.63L21.1648 21.6895L25.2 24.7159C25.6068 25.0208 25.6889 25.5975 25.3835 26.003V26.004C25.2037 26.2462 24.9282 26.3731 24.6462 26.3731C24.4538 26.3731 24.2604 26.313 24.0945 26.1886L19.6121 22.8262L19.5291 22.7569C19.348 22.585 19.2439 22.3439 19.2439 22.0899V15.3663C19.2439 14.857 19.6555 14.4454 20.1648 14.4454Z" fill="#F4F7FA" stroke="black" stroke-width="0.4"/>
<path d="M20.1641 7.7325C28.0317 7.7325 34.4324 14.1325 34.4326 22.0001C34.4326 29.8678 28.0318 36.2686 20.1641 36.2686C12.2965 36.2685 5.89648 29.8677 5.89648 22.0001C5.89665 14.1326 12.2966 7.73267 20.1641 7.7325ZM20.1641 9.57332C13.3129 9.57349 7.73747 15.1489 7.7373 22.0001C7.7373 28.8514 13.3128 34.4267 20.1641 34.4268C27.0155 34.4268 32.5908 28.8515 32.5908 22.0001C32.5907 15.1488 27.0165 9.57332 20.1641 9.57332Z" fill="#F4F7FA" stroke="black" stroke-width="0.4"/>
</g>
<mask id="path-6-inside-2_20_217" fill="white">
<path d="M29.6526 27.4678C28.6655 27.4678 27.7027 27.3629 26.7747 27.165C31.9985 25.8425 35.9171 20.3322 35.9172 13.7344C35.9172 7.13652 31.9985 1.62638 26.7747 0.303711C27.7027 0.105828 28.6655 0 29.6526 0C37.2374 0.000171107 43.386 6.14956 43.386 13.7344C43.3858 21.319 37.2373 27.4676 29.6526 27.4678Z"/>
</mask>
<path d="M29.6526 27.4678C28.6655 27.4678 27.7027 27.3629 26.7747 27.165C31.9985 25.8425 35.9171 20.3322 35.9172 13.7344C35.9172 7.13652 31.9985 1.62638 26.7747 0.303711C27.7027 0.105828 28.6655 0 29.6526 0C37.2374 0.000171107 43.386 6.14956 43.386 13.7344C43.3858 21.319 37.2373 27.4676 29.6526 27.4678Z" fill="#7247FF"/>
<path d="M29.6526 27.4678C28.6655 27.4678 27.7027 27.3629 26.7747 27.165C31.9985 25.8425 35.9171 20.3322 35.9172 13.7344C35.9172 7.13652 31.9985 1.62638 26.7747 0.303711C27.7027 0.105828 28.6655 0 29.6526 0C37.2374 0.000171107 43.386 6.14956 43.386 13.7344C43.3858 21.319 37.2373 27.4676 29.6526 27.4678Z" fill="url(#paint0_linear_20_217)"/>
<path d="M29.6526 27.4678L29.6526 27.7678L29.6526 27.7678L29.6526 27.4678ZM26.7747 27.165L26.701 26.8742L26.7121 27.4584L26.7747 27.165ZM35.9172 13.7344L36.2172 13.7344V13.7344H35.9172ZM26.7747 0.303711L26.7121 0.0103065L26.701 0.594534L26.7747 0.303711ZM29.6526 0L29.6526 -0.3H29.6526V0ZM43.386 13.7344L43.686 13.7344V13.7344H43.386ZM29.6526 27.4678V27.1678C28.6869 27.1678 27.7449 27.0652 26.8372 26.8716L26.7747 27.165L26.7121 27.4584C27.6604 27.6606 28.6442 27.7678 29.6526 27.7678V27.4678ZM26.7747 27.165L26.8483 27.4559C32.2325 26.0927 36.2171 20.4392 36.2172 13.7344L35.9172 13.7344L35.6172 13.7344C35.6171 20.2252 31.7644 25.5922 26.701 26.8742L26.7747 27.165ZM35.9172 13.7344H36.2172C36.2172 7.02951 32.2325 1.37617 26.8483 0.0128884L26.7747 0.303711L26.701 0.594534C31.7644 1.87658 35.6172 7.24353 35.6172 13.7344H35.9172ZM26.7747 0.303711L26.8372 0.597115C27.7452 0.403517 28.687 0.3 29.6526 0.3V0V-0.3C28.644 -0.3 27.6602 -0.191861 26.7121 0.0103065L26.7747 0.303711ZM29.6526 0L29.6526 0.3C37.0717 0.300167 43.086 6.31522 43.086 13.7344H43.386H43.686C43.686 5.98389 37.4031 -0.299825 29.6526 -0.3L29.6526 0ZM43.386 13.7344L43.086 13.7344C43.0858 21.1534 37.0716 27.1676 29.6526 27.1678L29.6526 27.4678L29.6526 27.7678C37.4029 27.7676 43.6858 21.4847 43.686 13.7344L43.386 13.7344Z" fill="black" mask="url(#path-6-inside-2_20_217)"/>
<defs>
<linearGradient id="paint0_linear_20_217" x1="35.0803" y1="27.4678" x2="35.0803" y2="0" gradientUnits="userSpaceOnUse">
<stop stop-color="#4614E8"/>
<stop offset="1" stop-color="#BCA7FF"/>
</linearGradient>
<clipPath id="clip0_20_217">
<rect x="5.69629" y="7.5323" width="28.9362" height="28.9362" fill="white"/>
</clipPath>
</defs>
</svg>
