<svg width="40" height="40" viewBox="0 0 40 40" fill="none" xmlns="http://www.w3.org/2000/svg">
<path d="M9.28906 0.200195C14.3104 0.200195 18.3789 4.23938 18.3789 9.21875C18.3788 14.198 14.3103 18.2373 9.28906 18.2373C4.26792 18.2372 0.200306 14.198 0.200195 9.21875C0.200195 4.23946 4.26785 0.200313 9.28906 0.200195Z" fill="#F1F5F8" stroke="black" stroke-width="0.4"/>
<path d="M9.28906 21.7631C14.3104 21.7631 18.3789 25.8023 18.3789 30.7817C18.3788 35.761 14.3103 39.8002 9.28906 39.8002C4.26792 39.8001 0.200306 35.7609 0.200195 30.7817C0.200195 25.8024 4.26785 21.7632 9.28906 21.7631Z" fill="#F1F5F8" stroke="black" stroke-width="0.4"/>
<path d="M30.7104 0.200195C35.7318 0.200195 39.8003 4.23938 39.8003 9.21875C39.8002 14.198 35.7317 18.2373 30.7104 18.2373C25.6893 18.2372 21.6217 14.198 21.6216 9.21875C21.6216 4.23946 25.6892 0.200313 30.7104 0.200195Z" fill="#F1F5F8" stroke="black" stroke-width="0.4"/>
<ellipse cx="30.7107" cy="30.7815" rx="9.28928" ry="9.21855" fill="url(#paint0_linear_20_234)"/>
<path d="M9.26611 5.63782C7.26911 5.63782 5.66943 7.24149 5.66943 9.19543C5.66951 11.1493 7.26916 12.7531 9.26611 12.7531V15.7531C5.63397 15.7531 2.66951 12.8278 2.66943 9.19543C2.66943 5.56305 5.63392 2.63782 9.26611 2.63782V5.63782Z" fill="#F1F5F8"/>
<path d="M9.26611 5.63782V5.83782H9.46611V5.63782H9.26611ZM5.66943 9.19543L5.46943 9.19543L5.46943 9.19544L5.66943 9.19543ZM9.26611 12.7531H9.46611V12.5531H9.26611V12.7531ZM9.26611 15.7531V15.9531H9.46611V15.7531H9.26611ZM2.66943 9.19543L2.46943 9.19543L2.46943 9.19544L2.66943 9.19543ZM9.26611 2.63782H9.46611V2.43782H9.26611V2.63782ZM9.26611 5.63782V5.43782C7.15993 5.43782 5.46943 7.12975 5.46943 9.19543H5.66943H5.86943C5.86943 7.35322 7.37829 5.83782 9.26611 5.83782V5.63782ZM5.66943 9.19543L5.46943 9.19544C5.46952 11.261 7.15997 12.9531 9.26611 12.9531V12.7531V12.5531C7.37835 12.5531 5.86951 11.0376 5.86943 9.19543L5.66943 9.19543ZM9.26611 12.7531H9.06611V15.7531H9.26611H9.46611V12.7531H9.26611ZM9.26611 15.7531V15.5531C5.74287 15.5531 2.86951 12.7157 2.86943 9.19543L2.66943 9.19543L2.46943 9.19544C2.46951 12.9398 5.52506 15.9531 9.26611 15.9531V15.7531ZM2.66943 9.19543H2.86943C2.86943 5.67506 5.74282 2.83782 9.26611 2.83782V2.63782V2.43782C5.52502 2.43782 2.46943 5.45105 2.46943 9.19543H2.66943ZM9.26611 2.63782H9.06611V5.63782H9.26611H9.46611V2.63782H9.26611Z" fill="black"/>
<path d="M30.3464 5.63782C28.3494 5.63782 26.7498 7.24149 26.7498 9.19543C26.7498 11.1493 28.3495 12.7531 30.3464 12.7531V15.7531C26.7143 15.7531 23.7498 12.8278 23.7498 9.19543C23.7498 5.56305 26.7142 2.63782 30.3464 2.63782V5.63782Z" fill="#F1F5F8"/>
<path d="M30.3464 5.63782V5.83782H30.5464V5.63782H30.3464ZM26.7498 9.19543L26.5498 9.19543L26.5498 9.19544L26.7498 9.19543ZM30.3464 12.7531H30.5464V12.5531H30.3464V12.7531ZM30.3464 15.7531V15.9531H30.5464V15.7531H30.3464ZM23.7498 9.19543L23.5498 9.19543L23.5498 9.19544L23.7498 9.19543ZM30.3464 2.63782H30.5464V2.43782H30.3464V2.63782ZM30.3464 5.63782V5.43782C28.2403 5.43782 26.5498 7.12975 26.5498 9.19543H26.7498H26.9498C26.9498 7.35322 28.4586 5.83782 30.3464 5.83782V5.63782ZM26.7498 9.19543L26.5498 9.19544C26.5498 11.261 28.2403 12.9531 30.3464 12.9531V12.7531V12.5531C28.4587 12.5531 26.9498 11.0376 26.9498 9.19543L26.7498 9.19543ZM30.3464 12.7531H30.1464V15.7531H30.3464H30.5464V12.7531H30.3464ZM30.3464 15.7531V15.5531C26.8232 15.5531 23.9498 12.7157 23.9498 9.19543L23.7498 9.19543L23.5498 9.19544C23.5498 12.9398 26.6054 15.9531 30.3464 15.9531V15.7531ZM23.7498 9.19543H23.9498C23.9498 5.67506 26.8231 2.83782 30.3464 2.83782V2.63782V2.43782C26.6053 2.43782 23.5498 5.45105 23.5498 9.19543H23.7498ZM30.3464 2.63782H30.1464V5.63782H30.3464H30.5464V2.63782H30.3464Z" fill="black"/>
<path d="M9.26611 27.0173C7.26911 27.0173 5.66943 28.621 5.66943 30.575C5.66951 32.5288 7.26916 34.1326 9.26611 34.1326V37.1326C5.63397 37.1326 2.66951 34.2073 2.66943 30.575C2.66943 26.9426 5.63392 24.0173 9.26611 24.0173V27.0173Z" fill="#F1F5F8"/>
<path d="M9.26611 27.0173V27.2173H9.46611V27.0173H9.26611ZM5.66943 30.575L5.46943 30.575L5.46943 30.575L5.66943 30.575ZM9.26611 34.1326H9.46611V33.9326H9.26611V34.1326ZM9.26611 37.1326V37.3326H9.46611V37.1326H9.26611ZM2.66943 30.575L2.46943 30.575L2.46943 30.575L2.66943 30.575ZM9.26611 24.0173H9.46611V23.8173H9.26611V24.0173ZM9.26611 27.0173V26.8173C7.15993 26.8173 5.46943 28.5093 5.46943 30.575H5.66943H5.86943C5.86943 28.7327 7.37829 27.2173 9.26611 27.2173V27.0173ZM5.66943 30.575L5.46943 30.575C5.46952 32.6406 7.15997 34.3326 9.26611 34.3326V34.1326V33.9326C7.37835 33.9326 5.86951 32.4171 5.86943 30.5749L5.66943 30.575ZM9.26611 34.1326H9.06611V37.1326H9.26611H9.46611V34.1326H9.26611ZM9.26611 37.1326V36.9326C5.74287 36.9326 2.86951 34.0953 2.86943 30.5749L2.66943 30.575L2.46943 30.575C2.46951 34.3193 5.52506 37.3326 9.26611 37.3326V37.1326ZM2.66943 30.575H2.86943C2.86943 27.0546 5.74282 24.2173 9.26611 24.2173V24.0173V23.8173C5.52502 23.8173 2.46943 26.8306 2.46943 30.575H2.66943ZM9.26611 24.0173H9.06611V27.0173H9.26611H9.46611V24.0173H9.26611Z" fill="black"/>
<defs>
<linearGradient id="paint0_linear_20_234" x1="30.7107" y1="21.563" x2="30.7107" y2="40.0001" gradientUnits="userSpaceOnUse">
<stop stop-color="#4614E8"/>
<stop offset="1" stop-color="#BCA7FF"/>
</linearGradient>
</defs>
</svg>
