<svg width="218" height="119" viewBox="0 0 218 119" fill="none" xmlns="http://www.w3.org/2000/svg">
<g clip-path="url(#clip0_0_935)">
<path d="M144.666 32.46L139.561 49.3965L128.527 62.1729L128.462 62.249L128.468 62.3486C128.499 62.9392 128.353 63.5259 128.051 64.0332C127.748 64.5405 127.302 64.9459 126.769 65.1973C126.237 65.4486 125.641 65.5353 125.059 65.4453C124.478 65.3553 123.936 65.093 123.504 64.6924C123.071 64.2916 122.767 63.7698 122.631 63.1943C122.494 62.619 122.532 62.0157 122.738 61.4619C122.945 60.9082 123.31 60.4286 123.789 60.085C124.268 59.7413 124.838 59.549 125.427 59.5322L125.556 59.5283L125.627 59.4209L134.69 45.8623L134.707 45.8379L134.717 45.8105L139.952 31.6211L144.666 32.46Z" fill="white" stroke="black" stroke-width="0.5"/>
<path d="M162.774 14.3395C162.774 19.5114 158.011 18.7291 152.137 18.7291C146.262 18.7291 141.5 19.5114 141.5 14.3395C141.5 9.16757 143.826 0 152.137 0C160.734 0 162.774 9.16758 162.774 14.3395Z" fill="#7247FF"/>
<path d="M172.702 43.1914L172.711 43.2197L172.726 43.2451L182.112 59.4629L182.143 59.5146L182.193 59.5469C182.682 59.8629 183.067 60.3169 183.3 60.8516C183.533 61.3861 183.604 61.9779 183.504 62.5527C183.404 63.1277 183.137 63.6606 182.737 64.084C182.338 64.5074 181.822 64.8037 181.256 64.9346C180.69 65.0653 180.098 65.0254 179.555 64.8203C179.011 64.6152 178.54 64.2533 178.199 63.7803C177.859 63.3074 177.665 62.7443 177.642 62.1611C177.618 61.5778 177.767 60.9999 178.068 60.501L178.156 60.3564L178.054 60.2207L167.636 46.4561L163.632 29.2236L168.39 28.6914L172.702 43.1914Z" fill="white" stroke="black" stroke-width="0.5"/>
<path d="M187.914 114.466H183.973L173.355 85.3638L180.435 84.3774L187.914 114.466Z" fill="white" stroke="black" stroke-width="0.5"/>
<path d="M149.07 86.9731L138.454 116.076H134.512L141.99 85.9868L149.07 86.9731Z" fill="white" stroke="black" stroke-width="0.5"/>
<path d="M162.838 22.3066C163.443 22.2531 164.067 22.2647 164.601 22.4053C165.133 22.5451 165.556 22.8066 165.804 23.2422C166.381 24.2561 167.397 26.3683 168.272 28.2363C168.709 29.1683 169.11 30.0367 169.401 30.6719C169.541 30.9771 169.656 31.2285 169.737 31.4072L164.236 32.2363L163.924 32.2832L164.041 32.5762L169.286 45.7451L169.312 45.8096L169.367 45.8516H169.368C169.368 45.8521 169.369 45.8535 169.371 45.8545C169.374 45.8568 169.378 45.8604 169.384 45.8652C169.397 45.8753 169.417 45.8911 169.443 45.9121C169.495 45.9542 169.572 46.0182 169.671 46.1045C169.869 46.2773 170.156 46.5393 170.506 46.8936C171.208 47.6022 172.163 48.6795 173.173 50.1475C175.194 53.0827 177.436 57.5826 178.304 63.8311C179.179 70.1247 180.054 75.8332 180.71 79.9678C181.037 82.0349 181.311 83.709 181.503 84.8662C181.598 85.4448 181.673 85.8944 181.724 86.1992C181.738 86.2819 181.75 86.354 181.76 86.415C181.731 86.4197 181.7 86.4253 181.667 86.4307C181.442 86.4665 181.111 86.519 180.686 86.585C179.835 86.7169 178.607 86.9031 177.096 87.1201C174.075 87.5542 169.925 88.112 165.412 88.6055C156.496 89.5802 146.205 90.2976 140.372 89.3418C140.373 89.3366 140.374 89.3315 140.375 89.3262C140.403 89.1599 140.445 88.921 140.504 88.6338C140.621 88.0587 140.801 87.2912 141.052 86.5166C141.304 85.7393 141.624 84.9678 142.015 84.3779C142.411 83.7818 142.848 83.418 143.322 83.3584L143.828 83.2949L143.468 82.9346C143.064 82.5287 142.914 82.1609 142.889 81.8477C142.865 81.531 142.966 81.2353 143.127 80.9727C143.287 80.7094 143.501 80.4907 143.678 80.3359C143.766 80.2593 143.843 80.2 143.898 80.1602C143.925 80.1402 143.947 80.1249 143.962 80.1152C143.969 80.1105 143.974 80.1066 143.977 80.1045C143.979 80.1036 143.98 80.1029 143.98 80.1025H143.981L143.98 80.1016L144.062 80.0508L144.087 79.958L149.36 60.9365L149.365 60.9189L149.368 60.9004L150.533 51.5361L150.539 51.4941L150.53 51.4531L150.529 51.4512C150.529 51.45 150.528 51.4484 150.528 51.4463C150.527 51.4415 150.526 51.434 150.524 51.4248C150.52 51.4063 150.513 51.3793 150.505 51.3438C150.49 51.2725 150.467 51.1676 150.436 51.0342C150.375 50.7674 150.286 50.3847 150.17 49.9199C149.937 48.9902 149.6 47.7303 149.179 46.4121C148.759 45.0949 148.254 43.7122 147.686 42.541C147.124 41.3811 146.48 40.3855 145.765 39.8867C144.549 39.0376 144.118 37.3874 144.01 35.874C143.957 35.127 143.985 34.4341 144.026 33.9277C144.046 33.6752 144.071 33.4699 144.089 33.3281C144.099 33.2572 144.106 33.2019 144.112 33.165C144.115 33.1466 144.117 33.1322 144.119 33.123C144.119 33.1188 144.119 33.1153 144.12 33.1133L144.121 33.1113V33.1104L144.173 32.8018L143.86 32.8193L138.898 33.0947C138.901 33.0593 138.904 33.0209 138.908 32.9795C138.929 32.7253 138.962 32.3612 139.009 31.9248C139.105 31.0513 139.258 29.8888 139.493 28.7285C139.728 27.5644 140.042 26.4179 140.452 25.5684C140.657 25.1435 140.88 24.8075 141.117 24.5801C141.351 24.3554 141.588 24.2472 141.834 24.2471H145.051L145.063 24.2461L160.508 22.7822L160.537 22.7803L160.564 22.7705L160.566 22.7695C160.568 22.7689 160.571 22.7688 160.575 22.7676C160.582 22.7651 160.594 22.7607 160.609 22.7559C160.64 22.7461 160.686 22.7324 160.746 22.7148C160.864 22.6798 161.036 22.6316 161.246 22.5801C161.666 22.4768 162.236 22.36 162.838 22.3066Z" fill="white" stroke="black" stroke-width="0.5"/>
<path d="M181.743 114.147H188.53L188.529 118.297H177.512C177.538 117.206 177.98 116.166 178.75 115.393C179.495 114.645 180.488 114.204 181.534 114.152L181.743 114.147Z" fill="white" stroke="black" stroke-width="0.5"/>
<path d="M132.786 114.147H139.573L139.572 118.297H128.554C128.581 117.206 129.023 116.166 129.792 115.393C130.537 114.645 131.53 114.204 132.577 114.152L132.786 114.147Z" fill="white" stroke="black" stroke-width="0.5"/>
<path d="M152.605 4.07227C156.419 4.07227 159.512 7.17729 159.512 11.0098C159.512 14.8423 156.419 17.9473 152.605 17.9473C148.791 17.9471 145.698 14.8422 145.698 11.0098C145.698 7.17737 148.791 4.07239 152.605 4.07227Z" fill="white" stroke="black" stroke-width="0.5"/>
<path d="M143.832 10.8279H146.663L147.912 7.31623L148.161 10.8279H149.514L150.243 8.77944L150.389 10.8279H160.442C160.442 8.80999 159.644 6.87469 158.223 5.44778C156.802 4.02087 154.875 3.21924 152.866 3.21924H151.408C149.399 3.21924 147.472 4.02087 146.051 5.44778C144.63 6.87469 143.832 8.80999 143.832 10.8279Z" fill="#7247FF"/>
<path d="M217.709 119H106.68C106.602 119 106.528 118.969 106.474 118.914C106.419 118.859 106.388 118.785 106.388 118.707C106.388 118.63 106.419 118.555 106.474 118.5C106.528 118.445 106.602 118.415 106.68 118.415H217.709C217.786 118.415 217.86 118.445 217.915 118.5C217.969 118.555 218 118.63 218 118.707C218 118.785 217.969 118.859 217.915 118.914C217.86 118.969 217.786 119 217.709 119Z" fill="#CBCBCB"/>
<path d="M125.382 9.97656H0V62.8486H125.382V9.97656Z" fill="#CBCBCB"/>
<path d="M2.62265 60.2149H122.759V12.6104H2.62265V60.2149Z" fill="white"/>
<path d="M104.246 29.7376V50.0375C104.245 50.3049 104.139 50.5613 103.951 50.7504C103.762 50.9395 103.507 51.046 103.241 51.0466H81.4893C81.223 51.046 80.9678 50.9395 80.7795 50.7504C80.5911 50.5613 80.4851 50.3049 80.4845 50.0375V29.7376C80.4847 29.47 80.5906 29.2135 80.779 29.0243C80.9674 28.8351 81.2229 28.7287 81.4893 28.7285H103.241C103.507 28.7287 103.763 28.8351 103.951 29.0243C104.14 29.2135 104.246 29.47 104.246 29.7376Z" fill="#6C63FF"/>
<path d="M104.246 29.7376V50.0375C104.245 50.3049 104.139 50.5613 103.951 50.7504C103.762 50.9395 103.507 51.046 103.241 51.0466H81.4893C81.223 51.046 80.9678 50.9395 80.7795 50.7504C80.5911 50.5613 80.4851 50.3049 80.4845 50.0375V29.7376C80.4847 29.47 80.5906 29.2135 80.779 29.0243C80.9674 28.8351 81.2229 28.7287 81.4893 28.7285H103.241C103.507 28.7287 103.763 28.8351 103.951 29.0243C104.14 29.2135 104.246 29.47 104.246 29.7376Z" fill="url(#paint0_linear_0_935)"/>
<path d="M93.9016 51.1487H90.828C90.5651 51.1518 90.3116 51.0501 90.1233 50.8658C89.9349 50.6815 89.827 50.4298 89.8232 50.1657V29.1081C89.827 28.844 89.9349 28.5923 90.1233 28.408C90.3116 28.2237 90.5651 28.122 90.828 28.1251H93.9016C94.1646 28.122 94.418 28.2237 94.6064 28.408C94.7947 28.5923 94.9027 28.844 94.9064 29.1081V50.1657C94.9027 50.4298 94.7947 50.6815 94.6064 50.8658C94.418 51.0501 94.1646 51.1518 93.9016 51.1487Z" fill="#3F3D56"/>
<path d="M91.732 22.3745C93.3117 23.7475 92.8129 26.9251 92.8129 26.9251C92.8129 26.9251 89.753 27.8765 88.1733 26.5034C86.5936 25.1304 87.0924 21.9528 87.0924 21.9528C87.0924 21.9528 90.1524 21.0014 91.732 22.3745Z" fill="#3F3D56"/>
<path d="M96.9788 26.2404C95.6165 27.831 92.4508 27.34 92.4508 27.34C92.4508 27.34 91.4938 24.2701 92.8561 22.6795C94.2184 21.0889 97.3842 21.5798 97.3842 21.5798C97.3842 21.5798 98.3412 24.6497 96.9788 26.2404Z" fill="#3F3D56"/>
<path opacity="0.2" d="M104.246 29.7376V33.1553L80.4845 33.0544V29.7376C80.4847 29.47 80.5906 29.2135 80.779 29.0243C80.9674 28.8351 81.2229 28.7287 81.4893 28.7285H103.241C103.507 28.7287 103.763 28.8351 103.951 29.0242C104.14 29.2134 104.246 29.47 104.246 29.7376Z" fill="black"/>
<path d="M106.804 31.8156C106.71 31.9398 106.588 32.0403 106.449 32.1092C106.31 32.1782 106.156 32.2138 106.001 32.2131L79.5211 32.1016C79.3892 32.101 79.2586 32.0744 79.1369 32.0231C79.0152 31.9719 78.9048 31.8971 78.8119 31.803C78.7189 31.7089 78.6454 31.5974 78.5954 31.4748C78.5454 31.3521 78.52 31.2208 78.5205 31.0883L78.5329 28.1205C78.534 27.8529 78.6409 27.5967 78.8301 27.4083C79.0193 27.2199 79.2752 27.1146 79.5417 27.1157H79.542L106.022 27.2272C106.154 27.2278 106.284 27.2544 106.406 27.3056C106.528 27.3568 106.638 27.4316 106.731 27.5257C106.824 27.6198 106.898 27.7314 106.948 27.854C106.998 27.9766 107.023 28.108 107.022 28.2405L107.01 31.2083C107.009 31.4279 106.937 31.6413 106.804 31.8156Z" fill="#6C63FF"/>
<path d="M106.804 31.8156C106.71 31.9398 106.588 32.0403 106.449 32.1092C106.31 32.1782 106.156 32.2138 106.001 32.2131L79.5211 32.1016C79.3892 32.101 79.2586 32.0744 79.1369 32.0231C79.0152 31.9719 78.9048 31.8971 78.8119 31.803C78.7189 31.7089 78.6454 31.5974 78.5954 31.4748C78.5454 31.3521 78.52 31.2208 78.5205 31.0883L78.5329 28.1205C78.534 27.8529 78.6409 27.5967 78.8301 27.4083C79.0193 27.2199 79.2752 27.1146 79.5417 27.1157H79.542L106.022 27.2272C106.154 27.2278 106.284 27.2544 106.406 27.3056C106.528 27.3568 106.638 27.4316 106.731 27.5257C106.824 27.6198 106.898 27.7314 106.948 27.854C106.998 27.9766 107.023 28.108 107.022 28.2405L107.01 31.2083C107.009 31.4279 106.937 31.6413 106.804 31.8156Z" fill="url(#paint1_linear_0_935)"/>
<path d="M89.8868 26.9221L89.8654 32.2642L94.9487 32.2846L94.97 26.9426L89.8868 26.9221Z" fill="#3F3D56"/>
<path d="M47.8963 28.4346H18.5021V30.7912H47.8963V28.4346Z" fill="#E5E5E5"/>
<path d="M63.8932 37.0308H18.5021V39.3874H63.8932V37.0308Z" fill="url(#paint2_linear_0_935)"/>
<path d="M55.4948 45.1289H18.5021V47.4856H55.4948V45.1289Z" fill="#E5E5E5"/>
<path d="M36.786 101.994C37.9293 102.398 39.1568 102.499 40.3503 102.288C41.5437 102.077 42.663 101.561 43.6001 100.789C45.9867 98.7774 46.7351 95.4642 47.3438 92.3956L49.1447 83.3188L45.3744 85.9258C42.6629 87.8006 39.8905 89.7356 38.0133 92.4511C36.136 95.1666 35.317 98.8738 36.8249 101.812" fill="#E6E6E6"/>
<path d="M37.3682 113.616C36.8937 110.144 36.4054 106.627 36.7391 103.118C37.0348 100.002 37.9816 96.9582 39.9092 94.4618C40.9323 93.1395 42.1773 92.0066 43.5882 91.1139C43.956 90.8808 44.2946 91.4661 43.9284 91.6983C41.4871 93.2475 39.5989 95.5353 38.5359 98.2317C37.3619 101.23 37.1734 104.499 37.3756 107.684C37.4978 109.61 37.7576 111.524 38.0184 113.435C38.039 113.522 38.0262 113.613 37.9825 113.69C37.9388 113.767 37.8675 113.825 37.783 113.852C37.6968 113.875 37.6049 113.863 37.5273 113.819C37.4497 113.775 37.3926 113.701 37.3684 113.615L37.3682 113.616Z" fill="#F2F2F2"/>
<path d="M40.7838 108.045C41.2741 108.793 41.948 109.402 42.7408 109.813C43.5335 110.224 44.4183 110.423 45.3099 110.391C47.6017 110.282 49.5115 108.676 51.2306 107.152L56.3164 102.642L52.9506 102.481C50.53 102.364 48.047 102.255 45.7415 103.005C43.436 103.756 41.3098 105.559 40.8883 107.956" fill="#E6E6E6"/>
<path d="M36.0268 115.612C38.3114 111.552 40.9611 107.041 45.6961 105.599C47.0126 105.199 48.393 105.056 49.763 105.177C50.1948 105.214 50.087 105.883 49.656 105.845C47.3595 105.654 45.0675 106.263 43.1657 107.57C41.3357 108.821 39.9107 110.56 38.7048 112.404C37.966 113.534 37.3043 114.711 36.6426 115.887C36.4312 116.263 35.8129 115.992 36.0268 115.612Z" fill="#F2F2F2"/>
<path d="M60.9275 116.366H21.2951C21.2178 116.366 21.1437 116.335 21.0891 116.28C21.0344 116.225 21.0037 116.151 21.0037 116.073C21.0037 115.996 21.0344 115.921 21.0891 115.866C21.1437 115.812 21.2178 115.781 21.2951 115.781H60.9275C61.0048 115.781 61.0789 115.812 61.1336 115.866C61.1882 115.921 61.2189 115.996 61.2189 116.073C61.2189 116.151 61.1882 116.225 61.1336 116.28C61.0789 116.335 61.0048 116.366 60.9275 116.366Z" fill="#CBCBCB"/>
</g>
<defs>
<linearGradient id="paint0_linear_0_935" x1="80.3563" y1="29.8222" x2="105.122" y2="30.0071" gradientUnits="userSpaceOnUse">
<stop stop-color="#4614E8"/>
<stop offset="1" stop-color="#BCA7FF"/>
</linearGradient>
<linearGradient id="paint1_linear_0_935" x1="78.3668" y1="27.3655" x2="108.029" y2="28.5285" gradientUnits="userSpaceOnUse">
<stop stop-color="#4614E8"/>
<stop offset="1" stop-color="#BCA7FF"/>
</linearGradient>
<linearGradient id="paint2_linear_0_935" x1="18.2573" y1="37.1462" x2="64.7215" y2="43.4215" gradientUnits="userSpaceOnUse">
<stop stop-color="#4614E8"/>
<stop offset="1" stop-color="#BCA7FF"/>
</linearGradient>
<clipPath id="clip0_0_935">
<rect width="218" height="119" fill="white"/>
</clipPath>
</defs>
</svg>
