<svg width="219" height="106" viewBox="0 0 219 106" fill="none" xmlns="http://www.w3.org/2000/svg">
<g clip-path="url(#clip0_0_1011)">
<path d="M29.796 84.7473H194.5V1.35889H29.796V84.7473Z" fill="white"/>
<path d="M195.859 86.1061H28.4374V0H195.859V86.1061ZM31.1547 83.3885H193.142V2.71758H31.1547V83.3885Z" fill="#E5E5E5"/>
<path d="M101.667 19C104.429 19 106.667 21.2386 106.667 24V42.303C106.667 45.0644 104.429 47.303 101.667 47.303H65.528L57.9278 56.4229L58.7956 47.303C56.7532 47.303 55.0976 45.6473 55.0976 43.6049V24C55.0976 21.2386 57.3361 19 60.0976 19H101.667Z" fill="url(#paint0_linear_0_1011)"/>
<path d="M131.564 20.6792V38.8259H157.94L162.813 44.673L162.257 38.8259H164.628V20.6792H131.564Z" fill="#F0F0F0"/>
<path d="M25.9352 94.3936L24.8648 103.073H22.9557V94.3936H25.9352Z" fill="#F4F7FA" stroke="black" stroke-width="0.5"/>
<path d="M26.7855 102.796C27.5113 102.796 28.2079 103.085 28.7211 103.598C29.198 104.075 29.4775 104.71 29.515 105.38H22.349V102.796H26.7855Z" fill="#F4F7FA" stroke="black" stroke-width="0.5"/>
<path d="M53.3323 102.486L51.4788 102.941L49.4055 94.5137L52.2981 93.8027L53.3323 102.486Z" fill="#F4F7FA" stroke="black" stroke-width="0.5"/>
<path d="M55.1317 101.758C55.8364 101.585 56.5811 101.699 57.202 102.075C57.7792 102.424 58.2017 102.974 58.3983 103.616L51.4403 105.327L50.8241 102.818L55.1297 101.758H55.1307H55.1317Z" fill="#F4F7FA" stroke="black" stroke-width="0.5"/>
<path d="M45.019 55.4707L46.5043 63.6064L49.5688 83.3066L49.5981 83.499L49.7787 83.5146C49.7768 83.5143 49.777 83.5149 49.7797 83.5156C49.7855 83.5173 49.8014 83.5226 49.8246 83.5352C49.8706 83.56 49.9526 83.617 50.0502 83.7432C50.2476 83.9982 50.5105 84.5377 50.6557 85.6533L50.6625 85.708L50.6918 85.7539C51.2727 86.676 51.616 87.7283 51.6918 88.8154L51.6947 88.8496L51.7065 88.8828V88.8838L51.7074 88.8857C51.7081 88.8877 51.709 88.8907 51.7104 88.8945C51.7132 88.9026 51.7174 88.9148 51.7231 88.9307C51.7345 88.9627 51.7522 89.0105 51.7738 89.0723C51.8172 89.1959 51.88 89.3768 51.9565 89.6035C52.1094 90.057 52.3172 90.6949 52.5385 91.4316C52.9806 92.9034 53.4705 94.7588 53.6791 96.3281L53.6322 99.2773L50.7065 100.836L43.9008 81.5859L43.893 81.5664L38.9555 70.6504L38.684 70.0498L38.4887 70.6797V70.6816C38.4884 70.6825 38.4882 70.684 38.4877 70.6855C38.4866 70.6891 38.484 70.6941 38.4818 70.7012C38.4773 70.7157 38.4704 70.7379 38.4613 70.7666C38.4432 70.824 38.4161 70.9096 38.3803 71.0205C38.3086 71.2425 38.2022 71.5672 38.0629 71.9775C37.7841 72.799 37.3742 73.9635 36.851 75.333C35.804 78.0736 34.3047 81.6321 32.4926 84.9121L32.4877 84.9199L32.4848 84.9277L32.4838 84.9287V84.9297C32.4832 84.931 32.482 84.933 32.4809 84.9355C32.4785 84.9407 32.4749 84.9487 32.4701 84.959C32.4607 84.9795 32.4465 85.01 32.4281 85.0498C32.3914 85.1293 32.337 85.246 32.268 85.3955C32.1297 85.6949 31.9313 86.1254 31.6898 86.6484C31.2069 87.6944 30.552 89.1117 29.8666 90.5977C28.4959 93.5693 27.0007 96.817 26.5023 97.9141L26.4955 97.9287L26.4906 97.9443L25.4623 101.335L21.5395 100.915L21.9818 98.6533L21.9848 98.6406L21.9857 98.6289V98.627C21.9858 98.626 21.9866 98.6248 21.9867 98.623C21.9872 98.6187 21.9878 98.6115 21.9887 98.6025C21.9905 98.5846 21.9934 98.5575 21.9975 98.5215C22.0056 98.4491 22.0179 98.3406 22.0365 98.1992C22.0737 97.9165 22.134 97.5006 22.227 96.9707C22.413 95.9102 22.7292 94.3929 23.2484 92.5723C24.2871 88.9302 26.138 84.0771 29.3852 79.2305L29.4125 79.1895L29.4223 79.1406L31.5482 68.5518L31.5551 68.5176L31.5522 68.4834C31.5521 68.4827 31.5523 68.4802 31.5522 68.4785C31.5519 68.4752 31.5516 68.4697 31.5512 68.4629C31.5502 68.4487 31.5488 68.4269 31.5473 68.3984C31.5443 68.341 31.5401 68.2555 31.5375 68.1445C31.5323 67.9219 31.5315 67.5968 31.5492 67.1934C31.5847 66.3862 31.6951 65.2649 31.9926 64.0107C32.588 61.5004 33.9293 58.4757 36.9096 56.3535L36.9086 56.3525L38.7143 55.1104L45.019 55.4707ZM49.7846 83.5156L49.7914 83.5166H49.7875L49.7846 83.5156Z" fill="#F4F7FA" stroke="black" stroke-width="0.5"/>
<path d="M43.2635 38.0965C45.8634 38.0965 47.971 35.9887 47.971 33.3886C47.971 30.7885 45.8634 28.6807 43.2635 28.6807C40.6636 28.6807 38.556 30.7885 38.556 33.3886C38.556 35.9887 40.6636 38.0965 43.2635 38.0965Z" fill="#FFB7B7"/>
<path d="M43.263 28.9307C45.7248 28.9307 47.721 30.9266 47.721 33.3887C47.721 35.8507 45.7248 37.8467 43.263 37.8467C40.8015 37.8464 38.806 35.8506 38.806 33.3887C38.806 30.9268 40.8014 28.9309 43.263 28.9307Z" fill="#F4F7FA" stroke="black" stroke-width="0.5"/>
<path d="M38.9808 41.3789C40.2443 40.3383 41.3927 39.9429 42.4554 40.0869C43.5223 40.2315 44.566 40.9275 45.5999 42.2061V42.207C45.9542 42.6494 46.369 43.0395 46.8314 43.3672L46.8324 43.3682C47.0164 43.4974 47.2606 43.7995 47.4925 44.2432C47.7205 44.6793 47.9233 45.2264 48.0394 45.8164C48.2727 47.002 48.1486 48.3133 47.2503 49.2715L47.1996 49.3262L47.1869 49.4004L45.6273 58.4961L45.6234 58.5215L45.6244 58.5469C45.665 59.7917 45.4627 60.5265 45.1273 60.8926C44.8187 61.2292 44.3284 61.3174 43.5726 61.0664C42.8167 60.8154 41.8665 60.2437 40.7445 59.3809C39.6581 58.5454 38.4269 57.4473 37.0736 56.1348L38.5648 52.4102L38.598 52.3281L38.5716 52.2441C37.4961 48.76 37.5557 45.0247 38.7396 41.5771L38.9808 41.3789Z" fill="#F4F7FA" stroke="black" stroke-width="0.5"/>
<path d="M57.6906 50.8579C57.9004 50.8096 58.1187 50.8081 58.3293 50.853C58.4872 50.8868 58.6385 50.9464 58.7765 51.0288L58.9103 51.1187L58.9113 51.1196C59.2022 51.3367 59.4034 51.6537 59.4767 52.0093C59.55 52.3648 59.491 52.7348 59.3097 53.0493C59.1284 53.3639 58.8377 53.6006 58.4933 53.7153C58.1489 53.8301 57.7742 53.8143 57.4406 53.6714L57.4015 53.6548L57.3586 53.6519L52.1281 53.3188L52.7345 51.4702L56.466 51.7612L56.633 51.7749L56.7082 51.6255C56.8059 51.4337 56.9448 51.2658 57.1144 51.1333C57.2841 51.0008 57.4808 50.9062 57.6906 50.8579Z" fill="#F4F7FA" stroke="black" stroke-width="0.5"/>
<path d="M42.1211 43.4351C42.7071 43.2237 43.3533 43.2531 43.917 43.5181C44.4807 43.7829 44.9156 44.2613 45.127 44.8472L46.834 49.5679L46.8838 49.7056L47.0284 49.73L55.6309 51.1538L55.0957 54.4233L44.2696 52.4028L40.7032 46.4224C40.4991 45.8413 40.5299 45.2029 40.792 44.645C41.0569 44.0813 41.5353 43.6464 42.1211 43.4351Z" fill="#F4F7FA" stroke="black" stroke-width="0.5"/>
<path d="M34.8724 32.3571C37.3666 32.3571 39.3886 30.3349 39.3886 27.8404C39.3886 25.3459 37.3666 23.3237 34.8724 23.3237C32.3781 23.3237 30.3561 25.3459 30.3561 27.8404C30.3561 30.3349 32.3781 32.3571 34.8724 32.3571Z" fill="#7247FF"/>
<path d="M30.9768 31.5808C31.5613 32.0033 32.2385 32.2797 32.9518 32.3868C33.665 32.4939 34.3936 32.4287 35.0764 32.1965C35.7593 31.9643 36.3766 31.5719 36.8767 31.0522C37.3768 30.5324 37.7452 29.9005 37.9511 29.2092C37.8732 29.8287 37.6677 30.4253 37.3476 30.9614C37.0275 31.4975 36.5998 31.9614 36.0914 32.3238C35.5829 32.6862 35.0049 32.9393 34.3938 33.067C33.7827 33.1948 33.1517 33.1944 32.5407 33.0659C31.9297 32.9375 31.352 32.6837 30.844 32.3207C30.336 31.9577 29.9088 31.4933 29.5894 30.9568C29.2699 30.4204 29.0651 29.8235 28.988 29.2039C28.9108 28.5843 28.9629 27.9554 29.1411 27.3569C29.0399 28.1609 29.1569 28.9774 29.4799 29.7205C29.8029 30.4637 30.3199 31.1063 30.9768 31.5808Z" fill="#7247FF"/>
<path d="M48.8 31.5855C48.0116 30.1739 47.7099 29.5842 46.6933 28.7258C45.7944 27.9667 44.6886 27.7437 43.7967 28.463C42.7417 28.0071 41.5677 27.9037 40.4492 28.1683C39.3306 28.4328 38.3273 29.0511 37.5881 29.9313C36.849 30.8115 36.4134 31.9067 36.3462 33.0542C36.279 34.2017 36.5836 35.3402 37.215 36.3008C37.8463 37.2613 38.7706 37.9925 39.8506 38.3859C40.9305 38.7792 42.1086 38.8136 43.2097 38.4841C44.3108 38.1545 45.2762 37.4785 45.9626 36.5565C46.6489 35.6345 47.0196 34.5157 47.0195 33.3662C47.0187 33.1644 47.0065 32.9627 46.9831 32.7622C47.7584 32.6534 48.0248 31.6944 48.8 31.5855Z" fill="#7247FF"/>
<path d="M195.504 60.6582L191.632 65.957L191.606 65.9922L191.595 66.0332C191.462 66.4776 191.171 66.8583 190.776 67.1025C190.382 67.3468 189.911 67.4378 189.454 67.3584C188.997 67.279 188.586 67.0346 188.297 66.6719C188.008 66.309 187.862 65.8529 187.887 65.3896V65.3877C187.9 65.1129 187.973 64.8441 188.101 64.6006C188.229 64.357 188.409 64.1441 188.628 63.9775C188.847 63.811 189.101 63.6939 189.37 63.6357C189.639 63.5777 189.917 63.5796 190.185 63.6406L190.349 63.6777L190.445 63.542L193.152 59.7256L195.504 60.6582Z" fill="#F4F7FA" stroke="black" stroke-width="0.5"/>
<path d="M196.623 40.9932C196.997 41.2139 198.04 41.9986 198.224 43.9766L198.227 44.0039L198.234 44.0293L201.393 53.957L193.135 64.6709L191.032 61.9375L195.962 53.6475L196.023 53.5449L195.981 53.4326L193.97 48.0693L196.623 40.9932Z" fill="#F4F7FA" stroke="black" stroke-width="0.5"/>
<path d="M163.458 31.1899H163.46C163.733 31.2242 163.995 31.3178 164.228 31.4644C164.461 31.611 164.659 31.8072 164.809 32.0386C164.958 32.27 165.055 32.5314 165.092 32.8042C165.129 33.077 165.105 33.3548 165.023 33.6177L164.975 33.7769L165.102 33.8843L168.696 36.8774L167.584 39.1499L162.602 34.8804L162.569 34.8521L162.529 34.8364C162.096 34.6697 161.74 34.35 161.527 33.938C161.314 33.526 161.26 33.0505 161.374 32.6011C161.488 32.1515 161.764 31.7596 162.148 31.4995C162.532 31.2395 162.998 31.1293 163.458 31.1899Z" fill="#F4F7FA" stroke="black" stroke-width="0.5"/>
<path d="M174.539 40.1489L174.637 40.2183L174.752 40.1851L180.253 38.5942L187.102 41.7876C186.851 42.1441 185.989 43.1218 184.006 43.1519L183.979 43.1528L183.952 43.1587L173.81 45.5405L163.768 36.478L166.654 34.5923L174.539 40.1489Z" fill="#F4F7FA" stroke="black" stroke-width="0.5"/>
<path d="M181.091 92.5312V102.79H178.772L177.507 92.5312H181.091Z" fill="#F4F7FA" stroke="black" stroke-width="0.5"/>
<path d="M176.559 102.493H181.688V105.38H173.433C173.459 105.054 173.536 104.733 173.661 104.43C173.819 104.049 174.05 103.703 174.341 103.412C174.632 103.121 174.978 102.89 175.359 102.732C175.739 102.575 176.147 102.493 176.559 102.493Z" fill="#F4F7FA" stroke="black" stroke-width="0.5"/>
<path d="M192.238 92.5312V102.79H189.92L188.654 92.5312H192.238Z" fill="#F4F7FA" stroke="black" stroke-width="0.5"/>
<path d="M187.706 102.493H192.835V105.38H184.58C184.606 105.054 184.682 104.733 184.808 104.43C184.965 104.049 185.197 103.703 185.489 103.412C185.78 103.121 186.126 102.89 186.506 102.732C186.839 102.594 187.193 102.515 187.552 102.497L187.706 102.493Z" fill="#F4F7FA" stroke="black" stroke-width="0.5"/>
<path d="M193.002 79.6924V79.6934L192.778 100.354L188.25 99.9424L185.766 71.2559L185.269 71.25L182.109 99.9229H177.411L176.895 71.0811L178.656 64.918L193.226 64.0352L193.002 79.6924Z" fill="#F4F7FA" stroke="black" stroke-width="0.5"/>
<path d="M190.666 35.314L190.828 37.0913L190.843 37.2563L191 37.3071C191.391 37.4323 193.193 38.0307 194.838 38.8999C195.662 39.3353 196.431 39.8306 196.963 40.3579C197.5 40.8905 197.751 41.4085 197.661 41.9019C197.444 43.0979 196.687 45.6003 195.961 47.8696C195.238 50.1317 194.553 52.1393 194.487 52.3325L194.475 52.3667L194.473 52.4028L194.022 63.2222C193.982 63.2412 193.927 63.2676 193.858 63.2993C193.706 63.3688 193.486 63.4668 193.206 63.5835C192.647 63.817 191.85 64.1254 190.887 64.4331C188.959 65.0491 186.371 65.6579 183.684 65.6577H183.68C181.751 65.69 179.836 65.3109 178.065 64.5464L178.023 64.5288L177.977 64.5269L177.5 64.5054L180.991 45.2759L181 45.2241L180.988 45.1714L179.537 39.2739C179.477 39.0267 179.509 38.7657 179.628 38.5405C179.747 38.3153 179.945 38.1417 180.183 38.0522L182.791 37.0737L182.9 37.0327L182.939 36.9243L183.793 34.5737L190.666 35.314Z" fill="#F4F7FA" stroke="black" stroke-width="0.5"/>
<path d="M186.977 22.8262C189.731 22.8262 191.963 25.0586 191.963 27.8125C191.963 30.5666 189.731 32.7998 186.977 32.7998C184.223 32.7998 181.991 30.5666 181.991 27.8125C181.991 25.0586 184.223 22.8262 186.977 22.8262Z" fill="#F4F7FA" stroke="black" stroke-width="0.5"/>
<path d="M191.218 32.8825C190.22 33.9456 188.367 33.3749 188.237 31.9226C188.227 31.8099 188.228 31.6964 188.239 31.5838C188.306 30.9404 188.678 30.3564 188.589 29.6771C188.569 29.5081 188.506 29.347 188.406 29.2091C187.611 28.1441 185.744 29.6854 184.994 28.7213C184.534 28.1302 185.074 27.1995 184.721 26.5388C184.255 25.6668 182.875 26.0969 182.009 25.6194C181.046 25.088 181.103 23.61 181.737 22.711C182.511 21.6147 183.867 21.0296 185.205 20.9453C186.544 20.861 187.874 21.223 189.124 21.7102C190.544 22.2637 191.953 23.0287 192.827 24.2776C193.889 25.7964 193.992 27.8383 193.46 29.6143C193.137 30.6947 192.033 32.0144 191.218 32.8825Z" fill="#7247FF"/>
<path d="M134.95 99.7065L134.343 101.27L127.091 98.4497L128.046 95.9917L134.95 99.7065Z" fill="#F4F7FA" stroke="black" stroke-width="0.5"/>
<path d="M137.624 96.4404C137.89 96.4347 138.155 96.4741 138.408 96.5537L136.084 102.534L133.958 101.707L134.065 101.43L134.875 99.3477L135.399 97.999C135.516 97.6997 135.689 97.4254 135.911 97.1934C136.133 96.9614 136.399 96.7758 136.692 96.6465C136.986 96.5172 137.303 96.4474 137.624 96.4404Z" fill="#F4F7FA" stroke="black" stroke-width="0.5"/>
<path d="M115.868 89.8081C116.953 89.2302 118.193 89.4783 119.203 89.9077C119.702 90.1202 120.132 90.3711 120.437 90.5698C120.589 90.669 120.71 90.7555 120.792 90.8159C120.832 90.846 120.864 90.8693 120.884 90.8853C120.895 90.8932 120.902 90.8999 120.907 90.9038C120.909 90.9058 120.912 90.9068 120.913 90.9077L120.914 90.9087L120.931 90.9224L120.951 90.9331L133.522 97.856L133.26 98.5513L132.449 100.702C130.396 100.928 128.142 100.41 126.029 99.5942C125.164 99.2607 124.317 98.8832 123.492 98.4624L123.491 98.4614C122.267 97.843 121.17 97.1896 120.295 96.6304C119.635 96.2073 119.102 95.8369 118.734 95.5728C118.55 95.4408 118.407 95.3354 118.311 95.2632C118.263 95.2271 118.226 95.1998 118.202 95.1812C118.19 95.1718 118.18 95.1643 118.174 95.1597C118.171 95.1574 118.169 95.1559 118.168 95.1548L118.167 95.1528H118.166L118.001 95.0239L117.844 95.1646V95.1655L117.842 95.1665C117.841 95.1679 117.839 95.1705 117.836 95.1733C117.829 95.1792 117.818 95.1881 117.805 95.1997C117.779 95.223 117.74 95.2573 117.689 95.3022L117.241 95.6919C116.718 96.1397 115.881 96.8398 114.821 97.6636H114.82C114.618 97.8217 114.408 97.9834 114.191 98.1489L113.517 98.6567C112.735 99.2367 111.903 99.2884 111.069 99.0288C110.223 98.7654 109.382 98.1821 108.629 97.5024C107.878 96.8254 107.23 96.0676 106.768 95.4771C106.538 95.1824 106.355 94.9303 106.23 94.7524C106.213 94.7276 106.196 94.704 106.181 94.6821C106.3 94.6075 106.456 94.5105 106.621 94.4087C106.976 94.1891 107.352 93.9624 107.499 93.8931C108.541 93.3999 110.991 92.2364 113.105 91.2017C113.649 90.9348 114.172 90.6758 114.642 90.439L115.868 89.8081Z" fill="#F4F7FA" stroke="black" stroke-width="0.5"/>
<path opacity="0.14" d="M115.868 89.8081C116.953 89.2302 118.193 89.4783 119.203 89.9077C119.702 90.1202 120.132 90.3711 120.437 90.5698C120.589 90.669 120.71 90.7555 120.792 90.8159C120.832 90.846 120.864 90.8693 120.884 90.8853C120.895 90.8932 120.902 90.8999 120.907 90.9038C120.909 90.9058 120.912 90.9068 120.913 90.9077L120.914 90.9087L120.931 90.9224L120.951 90.9331L133.522 97.856L133.26 98.5513L132.449 100.702C130.396 100.928 128.142 100.41 126.029 99.5942C125.164 99.2607 124.317 98.8832 123.492 98.4624L123.491 98.4614C122.267 97.843 121.17 97.1896 120.295 96.6304C119.635 96.2073 119.102 95.8369 118.734 95.5728C118.55 95.4408 118.407 95.3354 118.311 95.2632C118.263 95.2271 118.226 95.1998 118.202 95.1812C118.19 95.1718 118.18 95.1643 118.174 95.1597C118.171 95.1574 118.169 95.1559 118.168 95.1548L118.167 95.1528H118.166L118.001 95.0239L117.844 95.1646V95.1655L117.842 95.1665C117.841 95.1679 117.839 95.1705 117.836 95.1733C117.829 95.1792 117.818 95.1881 117.805 95.1997C117.779 95.223 117.74 95.2573 117.689 95.3022L117.241 95.6919C116.718 96.1397 115.881 96.8398 114.821 97.6636H114.82C114.618 97.8217 114.408 97.9834 114.191 98.1489L113.517 98.6567C112.735 99.2367 111.903 99.2884 111.069 99.0288C110.223 98.7654 109.382 98.1821 108.629 97.5024C107.878 96.8254 107.23 96.0676 106.768 95.4771C106.538 95.1824 106.355 94.9303 106.23 94.7524C106.213 94.7276 106.196 94.704 106.181 94.6821C106.3 94.6075 106.456 94.5105 106.621 94.4087C106.976 94.1891 107.352 93.9624 107.499 93.8931C108.541 93.3999 110.991 92.2364 113.105 91.2017C113.649 90.9348 114.172 90.6758 114.642 90.439L115.868 89.8081Z" fill="#F4F7FA" stroke="black" stroke-width="0.5"/>
<path d="M99.5006 78.907H89.3441C89.1352 78.9068 88.9349 78.8237 88.7872 78.676C88.6395 78.5282 88.5564 78.3279 88.5561 78.119V73.7408C88.5561 72.1848 89.1742 70.6926 90.2743 69.5924C91.3744 68.4921 92.8665 67.874 94.4224 67.874C95.9782 67.874 97.4703 68.4921 98.5704 69.5924C99.6705 70.6926 100.289 72.1848 100.289 73.7408V78.119C100.288 78.3279 100.205 78.5282 100.058 78.676C99.9098 78.8237 99.7095 78.9068 99.5006 78.907Z" fill="#7247FF"/>
<path d="M109.204 84.6523C109.541 84.5908 109.89 84.6559 110.183 84.834C110.476 85.0121 110.694 85.2915 110.794 85.6191C110.895 85.9469 110.872 86.3003 110.73 86.6123C110.588 86.9244 110.336 87.1737 110.022 87.3125L109.983 87.3301L109.952 87.3594L106.336 90.7793L105.453 89.1787L108.07 86.7715L108.193 86.6592L108.136 86.502C108.066 86.311 108.039 86.1069 108.056 85.9043C108.074 85.7015 108.136 85.5044 108.238 85.3281C108.34 85.152 108.479 85.0004 108.645 84.8838C108.812 84.7672 109.002 84.6876 109.202 84.6523H109.204Z" fill="#F4F7FA" stroke="black" stroke-width="0.5"/>
<path d="M93.565 82.0239C94.0536 81.7411 94.6327 81.6574 95.1812 81.7905C95.7255 81.9226 96.1976 82.2586 96.5025 82.728L100.575 91.8657L100.708 92.1636L100.961 91.9575L106.402 87.5356L109.144 88.603L103.958 94.3306C103.564 94.7632 103.083 95.1093 102.548 95.3462C102.013 95.583 101.434 95.7057 100.849 95.7065L100.672 95.7026C100.614 95.7001 100.555 95.696 100.496 95.6909H100.495C99.7922 95.6322 99.1162 95.3959 98.5299 95.0044C97.9434 94.6127 97.4656 94.0784 97.1422 93.4517V93.4507L92.7174 84.9341C92.4571 84.4331 92.4003 83.8511 92.5582 83.3091C92.7161 82.7671 93.0765 82.3067 93.565 82.0239Z" fill="#F4F7FA" stroke="black" stroke-width="0.5"/>
<path d="M134.472 102.563L133.747 104.074L126.734 100.705L127.874 98.3291L134.472 102.563Z" fill="#F4F7FA" stroke="black" stroke-width="0.5"/>
<path d="M137.39 99.5112C137.656 99.5259 137.916 99.5862 138.163 99.6851L135.387 105.469L133.33 104.481L133.459 104.212L134.426 102.199L135.053 100.894C135.191 100.605 135.386 100.346 135.625 100.131C135.864 99.9171 136.142 99.7514 136.445 99.645C136.748 99.5387 137.069 99.4936 137.39 99.5112Z" fill="#F4F7FA" stroke="black" stroke-width="0.5"/>
<path d="M116.208 91.2271C117.334 90.7346 118.551 91.0769 119.525 91.5825C120.006 91.8328 120.415 92.1168 120.704 92.3384C120.848 92.449 120.962 92.5434 121.039 92.6099C121.078 92.643 121.107 92.6694 121.126 92.687C121.136 92.6957 121.143 92.7022 121.148 92.7065L121.153 92.7124H121.154L121.17 92.728L121.189 92.7397L133.191 100.608L132.877 101.281L131.902 103.364C129.839 103.431 127.631 102.74 125.587 101.765L124.964 101.458C124.345 101.143 123.738 100.804 123.145 100.442L123.144 100.441C121.971 99.73 120.926 98.9947 120.096 98.3696H120.097C119.472 97.8972 118.969 97.4874 118.622 97.1958C118.449 97.05 118.315 96.9335 118.225 96.854C118.179 96.8143 118.145 96.7837 118.122 96.7632C118.111 96.7532 118.102 96.7458 118.097 96.7407C118.094 96.7382 118.091 96.7361 118.09 96.7349L118.089 96.7329H118.088L117.933 96.5913L117.767 96.7202L117.765 96.7222L117.726 96.7515C117.698 96.7727 117.656 96.8042 117.602 96.8452C117.493 96.9273 117.331 97.0471 117.124 97.1987C116.707 97.5034 116.104 97.9366 115.356 98.4458L114.56 98.979C114.346 99.121 114.125 99.2663 113.896 99.4146L113.185 99.8687C109.569 102.142 104.464 104.886 100.147 105.463C98.2826 105.713 97.032 105.275 96.1856 104.516C95.3302 103.749 94.8524 102.622 94.6036 101.431C94.3554 100.242 94.3409 99.0155 94.3897 98.0815C94.4141 97.6156 94.4545 97.2243 94.4884 96.9507C94.5044 96.8208 94.5185 96.7174 94.5294 96.645L100.455 93.5669L102.966 94.0767H102.967L105.858 94.6616L106.882 94.8706L106.952 94.8843L107.021 94.8589L107.023 94.8579C107.024 94.8573 107.027 94.857 107.029 94.856C107.035 94.8537 107.044 94.8496 107.056 94.8452C107.079 94.8363 107.114 94.8233 107.159 94.8062C107.25 94.7717 107.383 94.7217 107.55 94.6577C108.627 94.246 111.159 93.273 113.346 92.4038C114.472 91.9554 115.508 91.5326 116.207 91.228L116.208 91.2271Z" fill="#F4F7FA" stroke="black" stroke-width="0.5"/>
<path d="M86.5638 100.998L84.0756 103.537L83.9584 103.656L84.0238 103.811C84.1034 103.998 84.1412 104.2 84.1342 104.403C84.1271 104.607 84.0752 104.806 83.9828 104.987C83.8903 105.169 83.7595 105.328 83.599 105.453C83.4385 105.578 83.2524 105.666 83.0541 105.712L83.0551 105.725L83.0521 105.712C82.7184 105.791 82.3676 105.745 82.0658 105.582C81.7639 105.419 81.5321 105.151 81.4144 104.829C81.2969 104.507 81.3012 104.153 81.4271 103.834C81.5531 103.515 81.792 103.253 82.098 103.099L82.1361 103.079L82.1664 103.048L85.599 99.4453L86.5638 100.998Z" fill="#F4F7FA" stroke="black" stroke-width="0.5"/>
<path d="M95.8597 71.1616C97.9833 71.1616 99.7054 72.8835 99.7054 75.0073C99.7053 77.1311 97.9833 78.853 95.8597 78.853C93.7363 78.8528 92.0151 77.131 92.015 75.0073C92.015 72.8836 93.7363 71.1619 95.8597 71.1616Z" fill="#F4F7FA" stroke="black" stroke-width="0.5"/>
<path d="M101.253 85.2822L101.271 85.3027L101.292 85.3193L101.322 85.3428L101.338 85.3555L101.357 85.3662C102.067 85.7518 102.601 86.3959 102.848 87.165C103.113 88.0959 102.883 89.2014 102.089 90.4707L102.073 90.4971L102.026 90.5723L102.037 90.6602L102.313 92.876L94.1049 98.6123C94.0632 98.5911 94.0224 98.5669 93.9868 98.5361C93.9551 98.5087 93.9268 98.4777 93.9018 98.4443L93.8374 98.3359C93.7736 98.1882 93.7589 97.9769 93.8296 97.6885C93.9004 97.3992 94.0524 97.0522 94.2924 96.6553L94.3139 96.6201L94.3755 96.5186L94.3354 96.4072L90.7905 86.3574L91.8188 81.2139L97.1352 80.2695L101.253 85.2822Z" fill="#F4F7FA" stroke="black" stroke-width="0.5"/>
<path d="M94.4111 81.3159C94.8518 81.3263 95.2848 81.4315 95.6816 81.6235C96.0785 81.8156 96.4302 82.09 96.7119 82.4292C96.9936 82.7685 97.1996 83.1648 97.3154 83.5903C97.4311 84.0156 97.4545 84.4609 97.3838 84.896C97.3129 85.3313 97.1491 85.747 96.9043 86.1138L91.9736 93.5005L85.0888 103.709L83.0224 101.167L88.6924 91.8062L88.708 91.7817L88.7168 91.7544L91.4023 83.4507C91.538 83.0311 91.7622 82.6455 92.0595 82.3198C92.3569 81.9942 92.7214 81.7362 93.1269 81.563C93.5324 81.3899 93.9704 81.3055 94.4111 81.3159Z" fill="#F4F7FA" stroke="black" stroke-width="0.5"/>
<path d="M101.676 74.1791H95.4659L95.4022 73.2874L95.0838 74.1791H94.1275L94.0013 72.4118L93.3702 74.1791H91.5199V74.0915C91.5213 72.8611 92.0106 71.6815 92.8806 70.8115C93.7505 69.9415 94.93 69.4521 96.1603 69.4507H97.0359C98.2662 69.4521 99.4457 69.9415 100.316 70.8115C101.186 71.6815 101.675 72.8611 101.676 74.0915V74.1791Z" fill="#7247FF"/>
<path d="M95.415 79.7243C95.3682 79.7242 95.3216 79.7201 95.2755 79.712L90.728 78.9095V71.3931H95.734L95.61 71.5376C93.8857 73.5488 95.1848 76.81 96.1126 78.575C96.181 78.7043 96.2115 78.8502 96.2006 78.9961C96.1897 79.1419 96.1378 79.2817 96.0509 79.3993C95.9782 79.4999 95.8826 79.5818 95.7721 79.6383C95.6615 79.6948 95.5391 79.7243 95.415 79.7243Z" fill="#7247FF"/>
<path d="M163.357 66.2583V76.8473H116.452L109.678 84.9745L110.452 76.8473H107.156V66.2583H163.357Z" fill="#F0F0F0"/>
<path d="M126.657 73.4549C127.717 73.4549 128.576 72.5957 128.576 71.5358C128.576 70.4759 127.717 69.6167 126.657 69.6167C125.597 69.6167 124.738 70.4759 124.738 71.5358C124.738 72.5957 125.597 73.4549 126.657 73.4549Z" fill="white"/>
<path d="M120.181 73.4549C121.241 73.4549 122.1 72.5957 122.1 71.5358C122.1 70.4759 121.241 69.6167 120.181 69.6167C119.121 69.6167 118.262 70.4759 118.262 71.5358C118.262 72.5957 119.121 73.4549 120.181 73.4549Z" fill="white"/>
<path d="M113.704 73.4549C114.764 73.4549 115.623 72.5957 115.623 71.5358C115.623 70.4759 114.764 69.6167 113.704 69.6167C112.644 69.6167 111.785 70.4759 111.785 71.5358C111.785 72.5957 112.644 73.4549 113.704 73.4549Z" fill="white"/>
<path d="M218.76 105.84H0.239869C0.176251 105.84 0.11524 105.815 0.0702557 105.77C0.0252716 105.725 0 105.664 0 105.6C0 105.537 0.0252716 105.476 0.0702557 105.431C0.11524 105.386 0.176251 105.36 0.239869 105.36H218.76C218.824 105.36 218.885 105.386 218.93 105.431C218.975 105.476 219 105.537 219 105.6C219 105.664 218.975 105.725 218.93 105.77C218.885 105.815 218.824 105.84 218.76 105.84Z" fill="#CACACA"/>
</g>
<defs>
<linearGradient id="paint0_linear_0_1011" x1="54.8194" y1="20.8339" x2="108.566" y2="21.3532" gradientUnits="userSpaceOnUse">
<stop stop-color="#4614E8"/>
<stop offset="1" stop-color="#BCA7FF"/>
</linearGradient>
<clipPath id="clip0_0_1011">
<rect width="219" height="106" fill="white"/>
</clipPath>
</defs>
</svg>
