<svg width="528" height="271" viewBox="0 0 528 271" fill="none" xmlns="http://www.w3.org/2000/svg">
<path d="M448.5 159C492.407 159 528 123.407 528 79.5C528 35.5934 492.407 0 448.5 0C404.593 0 369 35.5934 369 79.5C369 123.407 404.593 159 448.5 159Z" fill="url(#paint0_linear_7_2)"/>
<path d="M19.5 243C30.2696 243 39 234.27 39 223.5C39 212.73 30.2696 204 19.5 204C8.73045 204 0 212.73 0 223.5C0 234.27 8.73045 243 19.5 243Z" fill="url(#paint1_linear_7_2)"/>
<path d="M222.5 271C229.404 271 235 265.404 235 258.5C235 251.596 229.404 246 222.5 246C215.596 246 210 251.596 210 258.5C210 265.404 215.596 271 222.5 271Z" fill="url(#paint2_linear_7_2)"/>
<defs>
<linearGradient id="paint0_linear_7_2" x1="403.294" y1="0" x2="528" y2="0" gradientUnits="userSpaceOnUse">
<stop stop-color="#E1D8FF"/>
<stop offset="1" stop-color="#F4ECFF"/>
</linearGradient>
<linearGradient id="paint1_linear_7_2" x1="8.41176" y1="204" x2="39" y2="204" gradientUnits="userSpaceOnUse">
<stop stop-color="#E1D8FF"/>
<stop offset="1" stop-color="#F4ECFF"/>
</linearGradient>
<linearGradient id="paint2_linear_7_2" x1="215.392" y1="246" x2="235" y2="246" gradientUnits="userSpaceOnUse">
<stop stop-color="#E1D8FF"/>
<stop offset="1" stop-color="#F4ECFF"/>
</linearGradient>
</defs>
</svg>
