<svg width="45" height="62" viewBox="0 0 45 62" fill="none" xmlns="http://www.w3.org/2000/svg">
<path d="M40 4H9C6.23858 4 4 6.23858 4 9V57C4 59.7614 6.23858 62 9 62H40C42.7614 62 45 59.7614 45 57V9C45 6.23858 42.7614 4 40 4Z" fill="url(#paint0_linear_4_3)"/>
<path d="M39.4672 14.5H11.5492" stroke="url(#paint1_linear_4_3)" stroke-width="3" stroke-linecap="round"/>
<path d="M39.4672 20.5H11.5492" stroke="url(#paint2_linear_4_3)" stroke-width="3" stroke-linecap="round"/>
<path d="M39.4672 26.5H11.5492" stroke="url(#paint3_linear_4_3)" stroke-width="3" stroke-linecap="round"/>
<path d="M39.4672 32.5H11.5492" stroke="url(#paint4_linear_4_3)" stroke-width="3" stroke-linecap="round"/>
<path d="M20.6475 50.8333H11.5492" stroke="url(#paint5_linear_4_3)" stroke-width="3" stroke-linecap="round"/>
<path d="M36 0H5C2.23858 0 0 2.23858 0 5V54C0 56.7614 2.23858 59 5 59H36C38.7614 59 41 56.7614 41 54V5C41 2.23858 38.7614 0 36 0Z" fill="url(#paint6_linear_4_3)" fill-opacity="0.5"/>
<path fill-rule="evenodd" clip-rule="evenodd" d="M38.9346 48.5101C38.9054 48.6862 38.8779 48.8525 38.8777 49.0037C38.8774 49.1646 38.9045 49.3371 38.9331 49.5196C38.9905 49.885 39.0501 50.2637 38.9018 50.6206C38.7536 50.9775 38.444 51.2021 38.1446 51.4193C37.9949 51.5279 37.8531 51.6308 37.7392 51.7446C37.6323 51.8514 37.5339 51.9883 37.4298 52.1332C37.2218 52.4227 36.9859 52.751 36.613 52.905C36.442 52.9757 36.2654 53 36.0905 53C35.8842 53 35.6802 52.9662 35.4899 52.9346C35.3138 52.9054 35.1475 52.8779 34.9962 52.8777H34.9943C34.8338 52.8777 34.6617 52.9047 34.4796 52.9333C34.1142 52.9907 33.7362 53.0501 33.3794 52.9019C33.0225 52.7537 32.7979 52.4441 32.5807 52.1447C32.472 51.9948 32.3693 51.8533 32.2554 51.7393C32.1486 51.6323 32.0117 51.5339 31.8668 51.4298C31.5773 51.2218 31.249 50.9859 31.095 50.6131C30.941 50.2403 31.0071 49.8416 31.0654 49.49C31.0946 49.3138 31.1221 49.1475 31.1223 48.9962C31.1226 48.8353 31.0954 48.6626 31.0667 48.4798C31.0093 48.1145 30.9499 47.7362 31.0981 47.3794C31.2464 47.0225 31.5559 46.7979 31.8553 46.5807C32.0051 46.472 32.1468 46.3692 32.2607 46.2554C32.3677 46.1486 32.466 46.0117 32.5702 45.8668C32.7782 45.5773 33.0141 45.249 33.3869 45.095C33.7597 44.941 34.1583 45.0071 34.51 45.0654C34.6861 45.0945 34.8525 45.1221 35.0037 45.1223H35.0057C35.1662 45.1223 35.3382 45.0953 35.5204 45.0667C35.8858 45.0093 36.2637 44.9499 36.6206 45.0981C36.9774 45.2463 37.202 45.5559 37.4192 45.8552C37.5279 46.005 37.6308 46.1468 37.7446 46.2607C37.8514 46.3677 37.9882 46.466 38.1331 46.5701C38.4226 46.7781 38.751 47.0141 38.905 47.3869C39.059 47.7597 38.9929 48.1584 38.9346 48.5101ZM32.1109 50.2207C32.2384 50.5221 32.4103 50.7986 32.6231 51.0454L32.9559 50.7127C32.5672 50.2493 32.3331 49.6521 32.3331 49C32.3331 47.5271 33.5271 46.3331 35 46.3331C35.6521 46.3331 36.2493 46.5673 36.7127 46.9559L37.0454 46.6231C36.7986 46.4103 36.5221 46.2384 36.2207 46.1109C35.8338 45.9473 35.4231 45.8643 35 45.8643C34.5769 45.8643 34.1662 45.9473 33.7793 46.1109C33.4059 46.2689 33.0706 46.4949 32.7828 46.7828C32.4949 47.0706 32.2689 47.4059 32.1109 47.7793C31.9473 48.1662 31.8643 48.5769 31.8643 49C31.8643 49.4231 31.9473 49.8338 32.1109 50.2207ZM37.2173 51.2173C37.5051 50.9295 37.7311 50.5942 37.8891 50.2207C38.0527 49.8338 38.1357 49.4231 38.1357 49C38.1357 48.5769 38.0527 48.1662 37.8891 47.7793C37.7616 47.4779 37.5897 47.2014 37.3768 46.9546L37.0441 47.2873C37.4327 47.7507 37.6669 48.348 37.6669 49C37.6669 50.4729 36.4729 51.6669 35 51.6669C34.3479 51.6669 33.7506 51.4328 33.2873 51.0442L32.9546 51.3769C33.2014 51.5898 33.4779 51.7616 33.7793 51.8891C34.1662 52.0527 34.5769 52.1357 35 52.1357C35.4231 52.1357 35.8338 52.0527 36.2207 51.8891C36.5941 51.7312 36.9294 51.5051 37.2173 51.2173Z" fill="url(#paint7_linear_4_3)"/>
<defs>
<linearGradient id="paint0_linear_4_3" x1="12.8431" y1="4" x2="45" y2="4" gradientUnits="userSpaceOnUse">
<stop stop-color="#E1D8FF"/>
<stop offset="1" stop-color="#F4ECFF"/>
</linearGradient>
<linearGradient id="paint1_linear_4_3" x1="-nan" y1="-nan" x2="-nan" y2="-nan" gradientUnits="userSpaceOnUse">
<stop stop-color="#BBA6FF"/>
<stop offset="1" stop-color="#CDBBEF"/>
</linearGradient>
<linearGradient id="paint2_linear_4_3" x1="-nan" y1="-nan" x2="-nan" y2="-nan" gradientUnits="userSpaceOnUse">
<stop stop-color="#BBA6FF"/>
<stop offset="1" stop-color="#CDBBEF"/>
</linearGradient>
<linearGradient id="paint3_linear_4_3" x1="-nan" y1="-nan" x2="-nan" y2="-nan" gradientUnits="userSpaceOnUse">
<stop stop-color="#BBA6FF"/>
<stop offset="1" stop-color="#CDBBEF"/>
</linearGradient>
<linearGradient id="paint4_linear_4_3" x1="-nan" y1="-nan" x2="-nan" y2="-nan" gradientUnits="userSpaceOnUse">
<stop stop-color="#BBA6FF"/>
<stop offset="1" stop-color="#CDBBEF"/>
</linearGradient>
<linearGradient id="paint5_linear_4_3" x1="-nan" y1="-nan" x2="-nan" y2="-nan" gradientUnits="userSpaceOnUse">
<stop stop-color="#BBA6FF"/>
<stop offset="1" stop-color="#CDBBEF"/>
</linearGradient>
<linearGradient id="paint6_linear_4_3" x1="8.84314" y1="0" x2="41" y2="0" gradientUnits="userSpaceOnUse">
<stop stop-color="#E1D8FF"/>
<stop offset="1" stop-color="#F4ECFF"/>
</linearGradient>
<linearGradient id="paint7_linear_4_3" x1="35" y1="45" x2="35" y2="53" gradientUnits="userSpaceOnUse">
<stop stop-color="#4614E8"/>
<stop offset="1" stop-color="#BCA7FF"/>
</linearGradient>
</defs>
</svg>
