<svg width="36" height="36" viewBox="0 0 36 36" fill="none" xmlns="http://www.w3.org/2000/svg">
<rect x="0.5" y="0.5" width="35" height="35" rx="9.5" stroke="#CFDAE7"/>
<path d="M21.5789 9H19.704C18.2695 9 17.2391 9.3405 16.613 10.0213C15.9866 10.7022 15.6737 11.7052 15.6737 13.0304V14.2937C15.6737 14.6275 15.4031 14.8981 15.0693 14.8981H14.4213C14.0875 14.8981 13.8169 15.1687 13.8169 15.5025V17.3956C13.8169 17.7294 14.0875 18 14.4213 18H15.0693C15.4031 18 15.6737 18.2706 15.6737 18.6044V26.3955C15.6737 26.7294 15.9442 27 16.2781 27H18.7937C19.1275 27 19.3981 26.7294 19.3981 26.3955V18.6044C19.3981 18.2706 19.6687 18 20.0025 18H21.273C21.6069 18 21.9058 17.7309 21.9409 17.399L22.1415 15.4991C22.1766 15.1671 21.9344 14.8981 21.6006 14.8981H20.0023C19.6685 14.8981 19.3979 14.6275 19.3979 14.2937V13.3472C19.3979 13.1143 19.4088 12.934 19.4307 12.8064C19.4525 12.6791 19.5016 12.5536 19.5782 12.4296C19.6545 12.306 19.7785 12.2203 19.9495 12.173C20.1205 12.1256 20.3482 12.1019 20.6321 12.1019H21.5786C21.9125 12.1019 22.183 11.8313 22.183 11.4974V9.60442C22.1833 9.27057 21.9127 9 21.5789 9Z" fill="#273895"/>
</svg>
