<svg width="36" height="36" viewBox="0 0 36 36" fill="none" xmlns="http://www.w3.org/2000/svg">
<rect x="0.5" y="0.5" width="35" height="35" rx="9.5" stroke="#CFDAE7"/>
<g clip-path="url(#clip0_26_32)">
<path d="M22.1275 9H13.8724C11.1857 9 9 11.1857 9 13.8724V22.1277C9 24.8142 11.1857 27 13.8724 27H22.1277C24.8142 27 27 24.8142 27 22.1277V13.8724C27 11.1857 24.8142 9 22.1275 9V9ZM18 22.9217C15.2861 22.9217 13.0783 20.7139 13.0783 18C13.0783 15.2861 15.2861 13.0783 18 13.0783C20.7139 13.0783 22.9217 15.2861 22.9217 18C22.9217 20.7139 20.7139 22.9217 18 22.9217V22.9217ZM23.0394 14.239C22.2374 14.239 21.5851 13.5866 21.5851 12.7846C21.5851 11.9826 22.2374 11.3302 23.0394 11.3302C23.8414 11.3302 24.4939 11.9826 24.4939 12.7846C24.4939 13.5866 23.8414 14.239 23.0394 14.239Z" fill="#273895"/>
<path d="M18 14.1335C15.8681 14.1335 14.1335 15.8679 14.1335 17.9999C14.1335 20.1318 15.8681 21.8664 18 21.8664C20.1321 21.8664 21.8665 20.1318 21.8665 17.9999C21.8665 15.8679 20.1321 14.1335 18 14.1335V14.1335Z" fill="#273895"/>
<path d="M23.0395 12.3857C22.8195 12.3857 22.6404 12.5648 22.6404 12.7848C22.6404 13.0048 22.8195 13.1839 23.0395 13.1839C23.2596 13.1839 23.4387 13.0049 23.4387 12.7848C23.4387 12.5647 23.2596 12.3857 23.0395 12.3857Z" fill="#273895"/>
</g>
<defs>
<clipPath id="clip0_26_32">
<rect width="18" height="18" fill="white" transform="translate(9 9)"/>
</clipPath>
</defs>
</svg>
