<svg width="13" height="10" viewBox="0 0 13 10" fill="none" xmlns="http://www.w3.org/2000/svg">
<path d="M7.42401 9.05557V5.31157C7.42401 3.58357 7.82934 2.30357 8.64001 1.47157C9.45068 0.618235 10.688 0.127569 12.352 -0.000431061L12.768 1.66357C10.9333 1.98357 10.016 2.87957 10.016 4.35157V4.63957H11.68V9.05557H7.42401ZM8.82149e-06 9.05557V5.31157C8.82149e-06 3.58357 0.405342 2.30357 1.21601 1.47157C2.02668 0.618235 3.26401 0.127569 4.92801 -0.000431061L5.34401 1.66357C3.50934 1.98357 2.59201 2.85824 2.59201 4.28757C2.59201 4.33024 2.59201 4.39424 2.59201 4.47957C2.61334 4.54357 2.62401 4.5969 2.62401 4.63957H4.25601V9.05557H8.82149e-06Z" fill="#303030"/>
</svg>
