<svg width="55" height="55" viewBox="0 0 55 55" fill="none" xmlns="http://www.w3.org/2000/svg">
<g clip-path="url(#clip0_0_1164)">
<path d="M25.3574 4.53467C39.2239 4.53467 50.4648 15.7756 50.4648 29.6421C50.4648 43.5086 39.224 54.7495 25.3574 54.7495C11.491 54.7494 0.25 43.5086 0.25 29.6421C0.250086 15.7757 11.491 4.53475 25.3574 4.53467Z" stroke="black" stroke-width="0.5"/>
<path d="M25.358 11.5049C35.3748 11.5051 43.4948 19.6258 43.4948 29.6426C43.4945 39.6592 35.3747 47.7791 25.358 47.7793C15.3412 47.7793 7.22055 39.6593 7.22034 29.6426C7.22034 19.6256 15.3411 11.5049 25.358 11.5049Z" stroke="black" stroke-width="0.5"/>
<path d="M25.3577 18.4756C31.5249 18.4756 36.5247 23.4753 36.5247 29.6426C36.5246 35.8098 31.5249 40.8095 25.3577 40.8096C19.1904 40.8096 14.1907 35.8098 14.1907 29.6426C14.1907 23.4753 19.1904 18.4756 25.3577 18.4756Z" stroke="black" stroke-width="0.5"/>
<path d="M25.3575 34.089C27.8133 34.089 29.8041 32.0982 29.8041 29.6424C29.8041 27.1866 27.8133 25.1958 25.3575 25.1958C22.9017 25.1958 20.9109 27.1866 20.9109 29.6424C20.9109 32.0982 22.9017 34.089 25.3575 34.089Z" fill="url(#paint0_linear_0_1164)"/>
<path d="M48.8654 0.115666L43.3025 5.67851C43.0634 5.91763 42.9386 6.24784 42.9599 6.58526L43.282 11.718L49.836 5.16406L49.535 0.368751C49.5138 0.0312319 49.1045 -0.123456 48.8654 0.115666Z" fill="url(#paint1_linear_0_1164)"/>
<path d="M54.8846 6.13462L49.3217 11.6975C49.0826 11.9366 48.7524 12.0614 48.415 12.0401L43.2822 11.718L49.8362 5.16406L54.6315 5.46506C54.9689 5.48622 55.1236 5.89561 54.8846 6.13462Z" fill="url(#paint2_linear_0_1164)"/>
<path d="M52.6577 1.52246C52.8842 1.29607 53.2516 1.29607 53.478 1.52246C53.7041 1.74873 53.704 2.11549 53.478 2.3418L25.7671 30.0518C25.654 30.1649 25.5065 30.2216 25.3579 30.2217C25.2092 30.2217 25.0611 30.165 24.9478 30.0518C24.7216 29.8254 24.7215 29.4587 24.9478 29.2324L52.6577 1.52246Z" stroke="black" stroke-width="0.5"/>
</g>
<defs>
<linearGradient id="paint0_linear_0_1164" x1="25.3575" y1="25.1958" x2="25.3575" y2="34.089" gradientUnits="userSpaceOnUse">
<stop stop-color="#4614E8"/>
<stop offset="1" stop-color="#BCA7FF"/>
</linearGradient>
<linearGradient id="paint1_linear_0_1164" x1="46.3967" y1="0" x2="46.3967" y2="11.718" gradientUnits="userSpaceOnUse">
<stop stop-color="#4614E8"/>
<stop offset="1" stop-color="#BCA7FF"/>
</linearGradient>
<linearGradient id="paint2_linear_0_1164" x1="49.1412" y1="5.16406" x2="49.1412" y2="12.0425" gradientUnits="userSpaceOnUse">
<stop stop-color="#4614E8"/>
<stop offset="1" stop-color="#BCA7FF"/>
</linearGradient>
<clipPath id="clip0_0_1164">
<rect width="55" height="55" fill="white"/>
</clipPath>
</defs>
</svg>
