<svg width="231" height="161" viewBox="0 0 231 161" fill="none" xmlns="http://www.w3.org/2000/svg">
<g clip-path="url(#clip0_0_1122)">
<path d="M104.745 65.2542H0V0H104.745V65.2542Z" fill="white"/>
<path d="M104.745 65.2542H0V0H104.745V65.2542ZM0.478288 64.7779H104.267V0.476309H0.478288V64.7779Z" fill="#3F3D56"/>
<path d="M91.9508 155.634H32.1649V90.3794H91.9508V155.634Z" fill="white"/>
<path d="M91.9508 155.634H32.1649V90.3794H91.9508V155.634ZM32.6432 155.157H91.4725V90.8557H32.6432V155.157Z" fill="#3F3D56"/>
<path d="M83.8199 149.471H71.3844V149.973H83.8199V149.471Z" fill="#3F3D56"/>
<path d="M83.8199 150.977H71.3844V151.479H83.8199V150.977Z" fill="#3F3D56"/>
<path d="M83.8199 152.483H71.3844V152.985H83.8199V152.483Z" fill="#3F3D56"/>
<path d="M62.0577 102.049V107.289C65.1794 107.289 68.2309 108.211 70.8265 109.938C73.4221 111.665 75.4451 114.12 76.6397 116.992C77.8343 119.864 78.1469 123.024 77.5379 126.073C76.9289 129.122 75.4257 131.923 73.2183 134.121L76.9385 137.826C79.8817 134.895 81.886 131.161 82.698 127.095C83.51 123.03 83.0932 118.816 81.5004 114.987C79.9076 111.157 77.2102 107.884 73.7495 105.581C70.2887 103.278 66.2199 102.049 62.0577 102.049Z" fill="#E6E6E6"/>
<path d="M76.9387 137.826L73.2185 134.121C70.52 136.809 66.9348 138.432 63.1269 138.689C59.3191 138.946 55.5467 137.82 52.5086 135.519L49.3242 139.692C53.3757 142.759 58.4057 144.259 63.4829 143.916C68.56 143.573 73.3403 141.409 76.9387 137.826Z" fill="#575A89"/>
<path d="M46.2742 123.007C46.2742 120.943 46.6825 118.899 47.4757 116.992C48.2689 115.085 49.4315 113.352 50.8971 111.892C52.3627 110.433 54.1027 109.275 56.0176 108.485C57.9326 107.695 59.985 107.289 62.0577 107.289V102.049C57.6523 102.049 53.3579 103.426 49.7799 105.986C46.2019 108.545 43.5207 112.158 42.1143 116.316C40.7079 120.474 40.6471 124.966 41.9406 129.16C43.2341 133.354 45.8166 137.038 49.3241 139.692L52.5085 135.52C50.5696 134.055 48.9977 132.163 47.9161 129.992C46.8344 127.821 46.2725 125.43 46.2742 123.007Z" fill="#6C63FF"/>
<path d="M46.2742 123.007C46.2742 120.943 46.6825 118.899 47.4757 116.992C48.2689 115.085 49.4315 113.352 50.8971 111.892C52.3627 110.433 54.1027 109.275 56.0176 108.485C57.9326 107.695 59.985 107.289 62.0577 107.289V102.049C57.6523 102.049 53.3579 103.426 49.7799 105.986C46.2019 108.545 43.5207 112.158 42.1143 116.316C40.7079 120.474 40.6471 124.966 41.9406 129.16C43.2341 133.354 45.8166 137.038 49.3241 139.692L52.5085 135.52C50.5696 134.055 48.9977 132.163 47.9161 129.992C46.8344 127.821 46.2725 125.43 46.2742 123.007Z" fill="url(#paint0_linear_0_1122)"/>
<path d="M180.434 115.148H120.648V49.8936H180.434V115.148Z" fill="white"/>
<path d="M140.019 89.7842H129.257V106.931H140.019V89.7842Z" fill="#575A89"/>
<path d="M155.563 78.1147H144.801V106.931H155.563V78.1147Z" fill="#E6E6E6"/>
<path d="M171.107 64.54H160.346V106.931H171.107V64.54Z" fill="#6C63FF"/>
<path d="M171.107 64.54H160.346V106.931H171.107V64.54Z" fill="url(#paint1_linear_0_1122)"/>
<path d="M174.695 107.408H126.388V57.6333H126.866V106.931H174.695V107.408Z" fill="#3F3D56"/>
<path d="M179.398 160.703H230.726C230.732 160.703 230.739 160.706 230.743 160.71C230.748 160.714 230.75 160.721 230.75 160.727C230.75 160.732 230.748 160.738 230.743 160.742C230.739 160.747 230.732 160.75 230.726 160.75H179.398C179.391 160.75 179.384 160.747 179.38 160.742C179.376 160.738 179.373 160.732 179.373 160.727C179.373 160.721 179.375 160.714 179.38 160.71C179.384 160.706 179.391 160.703 179.398 160.703Z" fill="white" stroke="black" stroke-width="0.5"/>
<path d="M90.1983 51.6068H14.5465C14.4837 51.6068 14.4235 51.582 14.3791 51.5378C14.3347 51.4935 14.3098 51.4336 14.3098 51.371V15.2612C14.3098 15.1986 14.3347 15.1387 14.3791 15.0944C14.4235 15.0502 14.4837 15.0254 14.5465 15.0254C14.6093 15.0254 14.6695 15.0502 14.7139 15.0944C14.7583 15.1387 14.7833 15.1986 14.7833 15.2612V51.1353H90.1983C90.2295 51.1352 90.2603 51.1412 90.2892 51.153C90.318 51.1648 90.3442 51.1821 90.3662 51.204C90.3883 51.2259 90.4058 51.252 90.4178 51.2806C90.4297 51.3093 90.4359 51.34 90.4359 51.371C90.4359 51.4021 90.4297 51.4328 90.4178 51.4615C90.4058 51.4901 90.3883 51.5161 90.3662 51.538C90.3442 51.5599 90.318 51.5773 90.2892 51.5891C90.2603 51.6009 90.2295 51.6069 90.1983 51.6068Z" fill="#3F3D56"/>
<path d="M30.7101 49.0137H23.8293C23.643 49.0135 23.4643 48.9397 23.3326 48.8085C23.2008 48.6773 23.1267 48.4994 23.1265 48.3138V38.8678C23.1267 38.6823 23.2008 38.5044 23.3326 38.3732C23.4643 38.242 23.643 38.1682 23.8293 38.168H30.7101C30.8964 38.1682 31.075 38.242 31.2068 38.3732C31.3386 38.5044 31.4127 38.6823 31.4129 38.8678V48.3138C31.4127 48.4994 31.3386 48.6773 31.2068 48.8085C31.0751 48.9397 30.8964 49.0135 30.7101 49.0137Z" fill="url(#paint2_linear_0_1122)"/>
<path d="M43.2581 49.0137H36.3773C36.191 49.0135 36.0124 48.9397 35.8806 48.8085C35.7488 48.6773 35.6747 48.4994 35.6745 48.3138V29.9083C35.6747 29.7228 35.7488 29.5449 35.8806 29.4137C36.0124 29.2825 36.191 29.2087 36.3773 29.2085H43.2581C43.4445 29.2087 43.6231 29.2825 43.7548 29.4137C43.8866 29.5449 43.9607 29.7228 43.9609 29.9083V48.3138C43.9607 48.4994 43.8866 48.6773 43.7548 48.8085C43.6231 48.9397 43.4445 49.0135 43.2581 49.0137Z" fill="url(#paint3_linear_0_1122)"/>
<path d="M55.8062 49.0137H48.9253C48.739 49.0135 48.5604 48.9397 48.4286 48.8085C48.2969 48.6773 48.2228 48.4994 48.2225 48.3138V38.8678C48.2228 38.6823 48.2969 38.5044 48.4286 38.3732C48.5604 38.242 48.739 38.1682 48.9253 38.168H55.8062C55.9925 38.1682 56.1711 38.242 56.3029 38.3732C56.4346 38.5044 56.5088 38.6823 56.509 38.8678V48.3138C56.5088 48.4994 56.4346 48.6773 56.3029 48.8085C56.1711 48.9397 55.9925 49.0135 55.8062 49.0137Z" fill="url(#paint4_linear_0_1122)"/>
<path d="M68.3542 49.0134H61.4734C61.2913 49.0173 61.1151 48.9491 60.9834 48.8239C60.8516 48.6987 60.7751 48.5265 60.7706 48.3452V26.3397C60.7751 26.1584 60.8516 25.9862 60.9834 25.861C61.1151 25.7358 61.2913 25.6676 61.4734 25.6715H68.3542C68.5363 25.6676 68.7125 25.7358 68.8442 25.861C68.976 25.9862 69.0525 26.1584 69.057 26.3397V48.3452C69.0525 48.5265 68.976 48.6987 68.8442 48.8239C68.7125 48.9491 68.5363 49.0173 68.3542 49.0134Z" fill="url(#paint5_linear_0_1122)"/>
<path d="M80.9023 49.0134H74.0215C73.8351 49.0132 73.6565 48.9394 73.5248 48.8082C73.393 48.677 73.3189 48.4991 73.3187 48.3136V20.0055C73.3189 19.82 73.393 19.6421 73.5248 19.5109C73.6565 19.3797 73.8351 19.3059 74.0215 19.3057H80.9023C81.0886 19.3059 81.2673 19.3797 81.399 19.5109C81.5308 19.6421 81.6049 19.82 81.6051 20.0055V48.3136C81.6049 48.4991 81.5308 48.677 81.399 48.8082C81.2673 48.9394 81.0886 49.0132 80.9023 49.0134Z" fill="url(#paint6_linear_0_1122)"/>
<path d="M27.2696 35.3386C28.0541 35.3386 28.6901 34.7052 28.6901 33.9239C28.6901 33.1426 28.0541 32.5093 27.2696 32.5093C26.4851 32.5093 25.8491 33.1426 25.8491 33.9239C25.8491 34.7052 26.4851 35.3386 27.2696 35.3386Z" fill="#3F3D56"/>
<path d="M39.8177 26.1433C40.6022 26.1433 41.2382 25.5099 41.2382 24.7286C41.2382 23.9473 40.6022 23.314 39.8177 23.314C39.0331 23.314 38.3972 23.9473 38.3972 24.7286C38.3972 25.5099 39.0331 26.1433 39.8177 26.1433Z" fill="#3F3D56"/>
<path d="M52.3658 35.3386C53.1503 35.3386 53.7863 34.7052 53.7863 33.9239C53.7863 33.1426 53.1503 32.5093 52.3658 32.5093C51.5812 32.5093 50.9453 33.1426 50.9453 33.9239C50.9453 34.7052 51.5812 35.3386 52.3658 35.3386Z" fill="#3F3D56"/>
<path d="M64.9137 21.6638C65.6982 21.6638 66.3342 21.0304 66.3342 20.2491C66.3342 19.4678 65.6982 18.8345 64.9137 18.8345C64.1292 18.8345 63.4932 19.4678 63.4932 20.2491C63.4932 21.0304 64.1292 21.6638 64.9137 21.6638Z" fill="#3F3D56"/>
<path d="M77.4618 16.4763C78.2463 16.4763 78.8823 15.8429 78.8823 15.0616C78.8823 14.2803 78.2463 13.647 77.4618 13.647C76.6773 13.647 76.0413 14.2803 76.0413 15.0616C76.0413 15.8429 76.6773 16.4763 77.4618 16.4763Z" fill="#3F3D56"/>
<path d="M52.3955 34.2408L39.8177 24.8588L27.4115 34.1126L27.1277 33.7351L39.8177 24.2694L52.3357 33.6069L64.7754 20.0503L64.8254 20.0301L77.3732 14.9951L77.5503 15.4327L65.0521 20.4475L52.3955 34.2408Z" fill="#3F3D56"/>
<path d="M188.458 88.6191L179.926 88.335L179.748 88.3291L179.685 88.4951C179.565 88.8062 179.378 89.0871 179.138 89.3184C178.897 89.5497 178.609 89.726 178.293 89.834C177.977 89.9419 177.641 89.9799 177.31 89.9443C176.978 89.9087 176.658 89.8004 176.372 89.6279L176.37 89.627H176.371C175.888 89.3394 175.527 88.8849 175.357 88.3496C175.188 87.8143 175.22 87.2356 175.449 86.7227C175.678 86.2096 176.087 85.7982 176.6 85.5664C177.112 85.3348 177.691 85.2984 178.228 85.4648L178.269 85.4775L178.312 85.4756L186.333 85.1553L188.458 88.6191Z" fill="white" stroke="black" stroke-width="0.5"/>
<path d="M226.128 105.424L226.09 105.598L226.243 105.689C226.528 105.862 226.773 106.095 226.959 106.372C227.144 106.649 227.268 106.963 227.319 107.292C227.37 107.621 227.348 107.958 227.255 108.278C227.161 108.598 226.999 108.895 226.779 109.146L226.778 109.146C226.41 109.571 225.899 109.846 225.341 109.92C224.784 109.993 224.219 109.86 223.754 109.545C223.288 109.23 222.955 108.755 222.816 108.211C222.677 107.667 222.743 107.091 223.002 106.592L223.021 106.554L223.027 106.511L224.115 98.5635L227.901 97.0801L226.128 105.424Z" fill="white" stroke="black" stroke-width="0.5"/>
<path d="M205.644 143.505V154.905H203.025L201.618 143.505H205.644Z" fill="white" stroke="black" stroke-width="0.5"/>
<path d="M206.43 154.398V157.896H196.976C196.991 157.463 197.083 157.036 197.25 156.635C197.432 156.195 197.698 155.795 198.035 155.459C198.371 155.123 198.772 154.856 199.212 154.674C199.651 154.492 200.123 154.398 200.599 154.398H206.43Z" fill="white" stroke="black" stroke-width="0.5"/>
<path d="M220.757 143.505V154.905H218.139L216.732 143.505H220.757Z" fill="white" stroke="black" stroke-width="0.5"/>
<path d="M221.545 154.398L221.544 157.896H212.09C212.104 157.463 212.197 157.036 212.363 156.635C212.545 156.195 212.812 155.795 213.148 155.459C213.485 155.123 213.885 154.856 214.325 154.674C214.765 154.492 215.237 154.398 215.713 154.398H221.545Z" fill="white" stroke="black" stroke-width="0.5"/>
<path d="M202.231 107.418C209.781 104.706 215.993 104.926 221.257 108.031L221.993 147.2C221.995 147.317 221.973 147.434 221.93 147.543C221.887 147.652 221.822 147.751 221.74 147.835C221.658 147.919 221.56 147.985 221.452 148.03C221.343 148.076 221.226 148.1 221.109 148.1H217.423L217.272 148.086C217.122 148.06 216.98 147.996 216.862 147.898C216.743 147.801 216.653 147.675 216.598 147.533L216.556 147.387L211.535 121.867C211.506 121.721 211.425 121.589 211.308 121.496C211.191 121.403 211.045 121.355 210.896 121.36C210.747 121.366 210.604 121.425 210.494 121.526C210.384 121.627 210.313 121.764 210.295 121.912L207.137 147.915C207.11 148.129 207.006 148.326 206.844 148.469C206.682 148.612 206.474 148.69 206.258 148.691C206.247 148.691 206.236 148.692 206.225 148.691L201.853 148.517H201.854C201.621 148.507 201.402 148.405 201.244 148.235C201.085 148.065 200.999 147.84 201.005 147.608L202.231 107.418Z" fill="white" stroke="black" stroke-width="0.5"/>
<path d="M210.468 59.7324C213.746 59.7324 216.404 62.3879 216.404 65.6631C216.404 68.9385 213.746 71.5947 210.468 71.5947C207.189 71.5946 204.531 68.9384 204.531 65.6631C204.531 62.3879 207.189 59.7325 210.468 59.7324Z" fill="white" stroke="black" stroke-width="0.5"/>
<path d="M204.432 77.9893C204.853 77.8572 205.296 77.8088 205.736 77.8457C206.182 77.8831 206.615 78.008 207.013 78.2129C207.41 78.4179 207.763 78.6996 208.052 79.041C208.34 79.3822 208.558 79.7768 208.693 80.2021C208.829 80.6278 208.879 81.0765 208.841 81.5215C208.803 81.9664 208.677 82.3995 208.472 82.7959C208.266 83.1924 207.984 83.5445 207.641 83.832C207.299 84.1196 206.904 84.3369 206.477 84.4717L206.452 84.4805L206.428 84.4941L198.357 89.1709C195.961 90.56 193.141 91.0325 190.422 90.5L182.295 88.9092C182.173 88.8853 182.057 88.8359 181.956 88.7646C181.854 88.6932 181.769 88.6006 181.705 88.4941C181.687 88.4648 181.672 88.4344 181.658 88.4033L181.621 88.3066C181.567 88.1353 181.568 87.9517 181.621 87.7803L182.262 85.7285C182.316 85.5554 182.422 85.4027 182.566 85.292C182.71 85.1813 182.885 85.1169 183.066 85.1084L191.183 84.751L191.237 84.748L191.286 84.7236L204.432 77.9893Z" fill="white" stroke="black" stroke-width="0.5"/>
<path d="M218.673 76.5C219.12 76.519 219.559 76.626 219.964 76.8145C220.369 77.0029 220.733 77.2695 221.035 77.5986C221.337 77.9277 221.572 78.3129 221.725 78.7324L221.734 78.7588L221.749 78.7812L226.77 86.6377C228.261 88.9706 228.853 91.7653 228.437 94.502L227.193 102.683C227.174 102.805 227.129 102.922 227.062 103.026C227.011 103.105 226.95 103.175 226.878 103.233L226.803 103.288C226.774 103.307 226.744 103.324 226.713 103.339L226.618 103.38C226.449 103.441 226.266 103.448 226.092 103.402L224.012 102.851H224.013C223.837 102.803 223.68 102.703 223.564 102.564C223.476 102.46 223.414 102.338 223.382 102.207L223.359 102.073L222.654 93.9873L222.651 93.9326L222.623 93.8857L215.329 81.0498C215.179 80.6353 215.112 80.1954 215.13 79.7549C215.148 79.3089 215.255 78.8708 215.443 78.4658C215.631 78.0607 215.898 77.6959 216.227 77.3936C216.556 77.0915 216.941 76.8574 217.36 76.7041C217.78 76.5508 218.226 76.481 218.673 76.5Z" fill="white" stroke="black" stroke-width="0.5"/>
<path d="M211.845 73.4629L212.133 73.4775C212.235 73.4838 212.336 73.4911 212.438 73.499C213.894 73.6141 215.309 74.038 216.588 74.7432C217.867 75.4484 218.981 76.4191 219.855 77.5889C220.743 78.7753 221.367 80.138 221.687 81.585C222.006 83.0318 222.012 84.53 221.705 85.9795C220.497 91.6954 220.803 97.6278 222.593 103.189L224.252 108.339C224.294 108.467 224.305 108.604 224.285 108.737C224.266 108.871 224.216 108.998 224.14 109.109C224.063 109.221 223.962 109.313 223.844 109.379C223.726 109.445 223.594 109.483 223.459 109.49L215.125 109.937L213.032 106.323L212.566 105.519V110.075L202.49 110.616H202.488C202.474 110.617 202.459 110.617 202.443 110.617C202.32 110.617 202.2 110.592 202.088 110.543C201.976 110.494 201.876 110.423 201.793 110.333C201.711 110.244 201.647 110.138 201.608 110.023C201.568 109.908 201.552 109.785 201.562 109.664L202.728 95.2236L202.73 95.1953L202.726 95.167L201.264 85.3594V85.3584L201.224 85.0713C201.048 83.6335 201.176 82.1732 201.602 80.7861C202.055 79.3068 202.836 77.9477 203.885 76.8096V76.8086C204.922 75.672 206.203 74.7827 207.63 74.2061C208.968 73.6655 210.404 73.4125 211.845 73.4629Z" fill="white" stroke="black" stroke-width="0.5"/>
<path d="M206.784 58.6406C208.208 58.2297 209.707 58.142 211.17 58.3818C212.633 58.6216 214.024 59.1834 215.242 60.0273V60.0283C215.973 60.543 216.62 61.1662 216.912 61.9502C217.204 62.7352 217.047 63.6861 216.439 64.1641L216.224 64.333L216.413 64.5322C216.938 65.0881 217.309 65.772 217.486 66.5156C217.642 67.1664 217.644 67.8432 217.497 68.4932L217.425 68.7676C217.27 69.2642 216.809 69.7829 216.243 70.2539C215.685 70.7179 215.063 71.106 214.642 71.3477C214.537 71.4083 214.322 71.4776 214.033 71.5332C213.751 71.5874 213.423 71.6243 213.108 71.6318C212.79 71.6394 212.501 71.6164 212.289 71.5605C212.113 71.5141 212.047 71.4614 212.023 71.4316L212.012 71.4102L212.009 71.3975C211.961 71.1972 211.955 70.9855 211.968 70.7559C211.974 70.6408 211.984 70.5243 211.996 70.4033C212.007 70.2838 212.02 70.1588 212.028 70.0342C212.061 69.5416 212.022 68.9183 211.619 68.4834C211.241 68.0763 210.727 67.9968 210.255 67.9805C210.021 67.9724 209.766 67.9794 209.544 67.9785C209.312 67.9776 209.097 67.9679 208.899 67.9307C208.444 67.8273 208.041 67.5629 207.766 67.1855C207.49 66.8071 207.36 66.3411 207.402 65.875L207.453 65.6016C207.517 65.3102 207.511 65.0079 207.438 64.7188C207.365 64.4296 207.226 64.161 207.032 63.9346C206.838 63.7083 206.594 63.5303 206.319 63.4141C206.044 63.2978 205.746 63.2465 205.448 63.2646C205.218 63.2778 204.982 63.3056 204.761 63.3271C204.535 63.3492 204.319 63.3653 204.112 63.3613C203.702 63.3534 203.342 63.2652 203.032 62.9883C202.81 62.7898 202.646 62.3981 202.574 61.9326C202.503 61.4734 202.534 61.003 202.642 60.6895C202.724 60.4551 202.924 60.2244 203.236 60.002C203.545 59.7815 203.94 59.5852 204.369 59.4111C205.23 59.0619 206.18 58.8198 206.784 58.6406Z" fill="#7247FF" stroke="black" stroke-width="0.5"/>
</g>
<defs>
<linearGradient id="paint0_linear_0_1122" x1="40.8995" y1="103.894" x2="62.8343" y2="103.98" gradientUnits="userSpaceOnUse">
<stop stop-color="#4614E8"/>
<stop offset="1" stop-color="#BCA7FF"/>
</linearGradient>
<linearGradient id="paint1_linear_0_1122" x1="162.355" y1="64.5092" x2="179.678" y2="68.5037" gradientUnits="userSpaceOnUse">
<stop stop-color="#4614E8"/>
<stop offset="1" stop-color="#BCA7FF"/>
</linearGradient>
<linearGradient id="paint2_linear_0_1122" x1="24.6737" y1="38.1601" x2="34.1548" y2="44.7401" gradientUnits="userSpaceOnUse">
<stop stop-color="#4614E8"/>
<stop offset="1" stop-color="#BCA7FF"/>
</linearGradient>
<linearGradient id="paint3_linear_0_1122" x1="37.2217" y1="29.1941" x2="49.4965" y2="33.8592" gradientUnits="userSpaceOnUse">
<stop stop-color="#4614E8"/>
<stop offset="1" stop-color="#BCA7FF"/>
</linearGradient>
<linearGradient id="paint4_linear_0_1122" x1="49.7697" y1="38.1601" x2="59.2509" y2="44.7401" gradientUnits="userSpaceOnUse">
<stop stop-color="#4614E8"/>
<stop offset="1" stop-color="#BCA7FF"/>
</linearGradient>
<linearGradient id="paint5_linear_0_1122" x1="62.3178" y1="25.6544" x2="75.0423" y2="29.7577" gradientUnits="userSpaceOnUse">
<stop stop-color="#4614E8"/>
<stop offset="1" stop-color="#BCA7FF"/>
</linearGradient>
<linearGradient id="paint6_linear_0_1122" x1="74.8659" y1="19.2841" x2="88.0662" y2="22.6286" gradientUnits="userSpaceOnUse">
<stop stop-color="#4614E8"/>
<stop offset="1" stop-color="#BCA7FF"/>
</linearGradient>
<clipPath id="clip0_0_1122">
<rect width="231" height="161" fill="white"/>
</clipPath>
</defs>
</svg>
