<svg width="36" height="36" viewBox="0 0 36 36" fill="none" xmlns="http://www.w3.org/2000/svg">
<rect x="0.5" y="0.5" width="35" height="35" rx="9.5" stroke="#CFDAE7"/>
<path d="M9.26145 24.0076C10.928 25.0651 12.8675 25.6238 14.87 25.6238C17.8025 25.6238 20.4897 24.4973 22.4375 22.4521C24.3012 20.4946 25.3265 17.8643 25.2755 15.1951C25.982 14.5906 26.813 13.4363 26.813 12.3113C26.813 11.8801 26.345 11.6063 25.9655 11.8261C25.3017 12.2161 24.6965 12.3181 24.074 12.1433C22.8027 10.9043 20.9105 10.6433 19.316 11.5028C17.9225 12.2528 17.1477 13.6253 17.2175 15.1253C14.8632 14.8381 12.6882 13.6576 11.1717 11.8231C10.9227 11.5238 10.4502 11.5591 10.2522 11.8981C9.5217 13.1491 9.5292 14.5988 10.1645 15.7696C9.8622 15.8228 9.67545 16.0771 9.67545 16.3523C9.67545 17.5291 10.205 18.6106 11.0577 19.3486C10.8987 19.5016 10.8462 19.7288 10.9137 19.9313C11.2887 21.0578 12.1377 21.9383 13.199 22.3793C12.0447 22.9306 10.7682 23.1143 9.63195 22.9748C9.04395 22.8953 8.7537 23.6858 9.26145 24.0076ZM15.0237 22.5721C15.4445 22.2488 15.221 21.5753 14.693 21.5641C13.763 21.5446 12.9162 21.0863 12.389 20.3656C12.6432 20.3491 12.9065 20.3101 13.157 20.2426C13.7277 20.0881 13.7007 19.2646 13.121 19.1483C12.0687 18.9368 11.243 18.1703 10.9332 17.1833C11.216 17.2531 11.504 17.2921 11.7912 17.2973C12.3605 17.3003 12.5757 16.5706 12.1115 16.2653C11.0652 15.5761 10.619 14.3588 10.9145 13.2143C12.7415 15.0653 15.2202 16.1806 17.8422 16.3066C18.218 16.3298 18.5 15.9766 18.4175 15.6188C18.0612 14.0746 18.9237 12.9923 19.85 12.4936C20.7665 11.9986 22.238 11.8441 23.366 13.0276C23.7012 13.3808 24.8322 13.3943 25.4075 13.2601C25.1495 13.7461 24.7527 14.2073 24.3815 14.4668C24.2232 14.5778 24.1325 14.7623 24.1422 14.9551C24.263 17.4188 23.345 19.8683 21.6237 21.6751C19.8897 23.4953 17.492 24.4981 14.8707 24.4981C13.8282 24.4981 12.806 24.3286 11.84 24.0016C12.995 23.7781 14.0922 23.2891 15.0237 22.5721Z" fill="#273895"/>
<path d="M15.0237 22.5721C15.4445 22.2488 15.221 21.5753 14.693 21.5641C13.763 21.5446 12.9162 21.0863 12.389 20.3656C12.6432 20.3491 12.9065 20.3101 13.157 20.2426C13.7277 20.0881 13.7007 19.2646 13.121 19.1483C12.0687 18.9368 11.243 18.1703 10.9332 17.1833C11.216 17.2531 11.504 17.2921 11.7912 17.2973C12.3605 17.3003 12.5757 16.5706 12.1115 16.2653C11.0652 15.5761 10.619 14.3588 10.9145 13.2143C12.7415 15.0653 15.2202 16.1806 17.8422 16.3066C18.218 16.3298 18.5 15.9766 18.4175 15.6188C18.0612 14.0746 18.9237 12.9923 19.85 12.4936C20.7665 11.9986 22.238 11.8441 23.366 13.0276C23.7012 13.3808 24.8322 13.3943 25.4075 13.2601C25.1495 13.7461 24.7527 14.2073 24.3815 14.4668C24.2232 14.5778 24.1325 14.7623 24.1422 14.9551C24.263 17.4188 23.345 19.8683 21.6237 21.6751C19.8897 23.4953 17.492 24.4981 14.8707 24.4981C13.8282 24.4981 12.806 24.3286 11.84 24.0016C12.995 23.7781 14.0922 23.2891 15.0237 22.5721Z" fill="#273895"/>
</svg>
