<svg width="36" height="36" viewBox="0 0 36 36" fill="none" xmlns="http://www.w3.org/2000/svg">
<rect x="0.5" y="0.5" width="35" height="35" rx="9.5" stroke="#CFDAE7"/>
<g clip-path="url(#clip0_26_33)">
<path d="M17.1088 23.625C19.7128 23.625 18.7843 21.9765 18.9853 21.5025C18.9823 21.1485 18.9793 20.808 18.9913 20.601C19.1563 20.6475 19.5455 20.8447 20.3495 21.6262C21.5908 22.8787 21.908 23.625 22.9108 23.625H24.7565C25.3415 23.625 25.646 23.3827 25.7983 23.1795C25.9453 22.983 26.0893 22.638 25.9318 22.101C25.52 20.808 23.1185 18.5752 22.9693 18.3397C22.9918 18.2962 23.0278 18.2385 23.0465 18.2085H23.045C23.519 17.5823 25.328 14.8717 25.5943 13.7872C25.595 13.7857 25.5958 13.7835 25.5958 13.7813C25.7398 13.2862 25.6078 12.9653 25.4713 12.7838C25.2658 12.5123 24.9388 12.375 24.497 12.375H22.6513C22.0333 12.375 21.5645 12.6862 21.3275 13.254C20.9308 14.2627 19.8163 16.3372 18.9808 17.0715C18.9553 16.0312 18.9725 15.237 18.986 14.6467C19.013 13.4955 19.1 12.375 17.9053 12.375H15.0043C14.2558 12.375 13.5395 13.1925 14.315 14.163C14.993 15.0135 14.5588 15.4875 14.705 17.847C14.135 17.2357 13.121 15.585 12.404 13.4753C12.203 12.9045 11.8985 12.3757 11.0412 12.3757H9.1955C8.447 12.3757 8 12.7837 8 13.467C8 15.0015 11.3968 23.625 17.1088 23.625ZM11.0412 13.5007C11.204 13.5007 11.2205 13.5008 11.3413 13.8435C12.0755 16.0058 13.7225 19.2053 14.9255 19.2053C15.8293 19.2053 15.8293 18.279 15.8293 17.9302L15.8285 15.1538C15.779 14.235 15.4445 13.7775 15.2248 13.5L17.8558 13.503C17.8573 13.5158 17.8408 16.5742 17.8633 17.3152C17.8633 18.3675 18.6988 18.9705 20.003 17.6505C21.3793 16.0973 22.331 13.7753 22.3693 13.6808C22.4255 13.5458 22.4743 13.5 22.6513 13.5H24.497H24.5045C24.5038 13.5023 24.5038 13.5045 24.503 13.5067C24.3343 14.2942 22.6685 16.8038 22.1113 17.583C22.1023 17.595 22.094 17.6078 22.0858 17.6205C21.8405 18.021 21.641 18.4635 22.1195 19.086H22.1203C22.1638 19.1385 22.277 19.2615 22.442 19.4325C22.4469 19.4376 22.4519 19.4428 22.4571 19.4481C22.9886 19.9966 24.716 21.7794 24.8705 22.4925C24.767 22.509 24.6545 22.497 22.9108 22.5007C22.5395 22.5007 22.2493 21.9458 21.1415 20.8283C20.1455 19.8593 19.499 19.4633 18.9103 19.4633C17.7673 19.4633 17.8505 20.391 17.861 21.513C17.8648 22.7295 17.8573 22.3448 17.8655 22.4213C17.7988 22.4475 17.6075 22.5 17.1088 22.5C12.35 22.5 9.251 14.9468 9.13175 13.503C9.173 13.4993 9.74075 13.5015 11.0412 13.5007Z" fill="#273895"/>
<path d="M11.0412 13.5007C11.204 13.5007 11.2205 13.5008 11.3413 13.8435C12.0755 16.0058 13.7225 19.2053 14.9255 19.2053C15.8293 19.2053 15.8293 18.279 15.8293 17.9302L15.8285 15.1538C15.779 14.235 15.4445 13.7775 15.2248 13.5L17.8558 13.503C17.8573 13.5158 17.8408 16.5742 17.8633 17.3152C17.8633 18.3675 18.6988 18.9705 20.003 17.6505C21.3793 16.0973 22.331 13.7753 22.3693 13.6808C22.4255 13.5458 22.4743 13.5 22.6513 13.5H24.497H24.5045C24.5038 13.5023 24.5038 13.5045 24.503 13.5067C24.3343 14.2942 22.6685 16.8038 22.1113 17.583C22.1023 17.595 22.094 17.6078 22.0858 17.6205C21.8405 18.021 21.641 18.4635 22.1195 19.086H22.1203C22.1638 19.1385 22.277 19.2615 22.442 19.4325L22.4571 19.4481C22.9886 19.9966 24.716 21.7794 24.8705 22.4925C24.767 22.509 24.6545 22.497 22.9108 22.5007C22.5395 22.5007 22.2493 21.9458 21.1415 20.8283C20.1455 19.8593 19.499 19.4633 18.9103 19.4633C17.7673 19.4633 17.8505 20.391 17.861 21.513C17.8648 22.7295 17.8573 22.3448 17.8655 22.4213C17.7988 22.4475 17.6075 22.5 17.1088 22.5C12.35 22.5 9.251 14.9468 9.13175 13.503C9.173 13.4993 9.74075 13.5015 11.0412 13.5007Z" fill="#273895"/>
</g>
<defs>
<clipPath id="clip0_26_33">
<rect width="18" height="18" fill="white" transform="translate(8 9)"/>
</clipPath>
</defs>
</svg>
